<?xml version="1.0" encoding="utf-8"?>
<!-- Generator: Adobe Illustrator 13.0.0, SVG Export Plug-In . SVG Version: 6.00 Build 14948)  -->
<!DOCTYPE svg PUBLIC "-//W3C//DTD SVG 1.1//EN" "http://www.w3.org/Graphics/SVG/1.1/DTD/svg11.dtd">
<svg version="1.1" id="Layer_1" xmlns="http://www.w3.org/2000/svg" xmlns:xlink="http://www.w3.org/1999/xlink" x="0px" y="0px"
	 width="164.715px" height="48px" viewBox="0 0 164.715 48" enable-background="new 0 0 164.715 48" xml:space="preserve">
<g>
	<path fill="#FFFFFF" d="M13.814,35.042c-3.175,0.907-7.31,0.958-9.932-1.261C1.462,31.714,0,28.234,0,24.504
		c0.05-5.798,2.42-11.798,8.874-11.798c6.151,0,8.42,4.236,8.521,11.042H3.882c-0.403,5.748,2.521,9.63,6.655,9.479
		c2.521-0.05,4.337-0.906,6.202-1.813l0.857,1.765C16.437,33.934,15.277,34.588,13.814,35.042z M13.714,21.63
		c0-3.227-1.412-6.656-4.688-6.656c-3.53,0-4.79,3.429-5.043,6.605h9.681L13.714,21.63z"/>
	<path fill="#FFFFFF" d="M30.755,12.504v24.605c0,7.562-3.781,10.891-9.681,10.891c-1.613,0-2.571-0.303-3.983-0.907l0.807-2.421
		c0.454,0.202,1.261,0.505,1.815,0.605c6.655,0.906,7.311-4.135,7.311-8.018l0.051-23.446L30.755,12.504z M26.52,5.445
		c0,1.311,1.059,2.37,2.37,2.37c1.361,0,2.42-1.059,2.42-2.37c0-1.361-1.059-2.42-2.37-2.42c-1.361,0-2.42,1.059-2.42,2.37V5.445z"
		/>
	<path fill="#FFFFFF" d="M43.511,35.598c-3.983-0.102-7.261-3.277-7.16-7.312c0.051-4.285,3.378-6.907,7.613-6.856
		c2.42,0,3.983,0,6,0v-2.168c0-2.521-2.319-4.236-4.79-4.236c-2.218,0-3.831,0.555-5.798,1.563l-0.907-2.118
		c2.621-1.411,4.639-1.916,7.663-1.916c3.681,0,7.312,2.42,7.312,6.504v12.756C51.325,33.934,47.896,35.646,43.511,35.598z
		 M49.863,23.748c-1.16,0-3.025,0-4.841,0.051c-2.823,0-4.94,1.613-4.94,4.387c0,2.521,2.117,4.94,5.042,4.94
		c2.117,0.051,4.084-1.108,4.739-1.815V23.748z"/>
	<path fill="#FFFFFF" d="M69.375,35.598c-7.411-0.252-10.235-3.884-10.235-3.832V1.26l3.58-1.21v14.471
		c2.067-1.261,4.185-2.017,6.655-1.966c6.051,0.202,8.874,5.496,8.874,11.092c-0.051,6.403-3.177,12.151-8.874,12.001V35.598z
		 M62.72,16.739l0.051,14.571c0.453,0.555,2.975,1.967,6.05,1.814c4.286-0.202,5.345-5.697,5.345-9.327
		c0-3.732-0.706-8.421-5.546-8.724C66.35,14.924,63.93,16.034,62.72,16.739z"/>
	<path fill="#FFFFFF" d="M93.775,35.598c-7.41-0.252-10.233-3.884-10.233-3.832V1.26l3.579-1.21v14.471
		c2.066-1.261,4.186-2.017,6.654-1.966c6.052,0.202,8.875,5.496,8.875,11.092c-0.051,6.403-3.176,12.151-8.875,12.001V35.598z
		 M87.121,16.739l0.051,14.571c0.453,0.555,2.975,1.967,6.051,1.814c4.285-0.202,5.344-5.697,5.344-9.327
		c0-3.732-0.705-8.421-5.545-8.724C90.752,14.924,88.332,16.034,87.121,16.739z"/>
	<path fill="#FFFFFF" d="M120.801,35.042c-3.177,0.907-7.312,0.958-9.934-1.261c-2.42-2.067-3.883-5.547-3.883-9.277
		c0.051-5.798,2.42-11.798,8.875-11.798c6.15,0,8.42,4.236,8.521,11.042h-13.513c-0.403,5.748,2.521,9.63,6.656,9.479
		c2.521-0.05,4.336-0.906,6.201-1.813l0.856,1.765C123.422,33.934,122.264,34.588,120.801,35.042z M120.699,21.63
		c0-3.227-1.411-6.656-4.688-6.656c-3.529,0-4.791,3.429-5.043,6.605h9.682L120.699,21.63z"/>
	<path fill="#FFFFFF" d="M138.9,15.328c-2.42,0-4.084,0.908-5.396,2.017v17.848h-3.681V16.84c1.36-1.513,3.177-2.723,5.243-3.429
		c2.22-0.807,4.336-1.311,7.412-0.756c-0.453,0.908-1.06,2.067-1.463,2.975c-0.705-0.151-1.562-0.302-2.065-0.302H138.9z"/>
	<path fill="#FFFFFF" d="M154.126,35.598c-6.05,0.051-8.724-6.252-8.724-11.497c0-5.344,3.025-11.596,9.127-11.546
		c2.318,0,4.486,0.605,6.604,1.613V1.21l3.53-1.21l0.051,31.714C161.688,34.084,158.21,35.598,154.126,35.598z M161.135,16.992
		c-1.865-1.16-3.479-1.967-5.697-2.017c-4.64,0-6.051,5.697-6.051,9.378c0,3.479,1.361,9.025,5.85,9.025
		c2.269,0,4.537-1.159,5.898-2.067V16.992z"/>
</g>
</svg>
