<?xml version="1.0" encoding="utf-8"?>
<!-- Generator: Adobe Illustrator 13.0.2, SVG Export Plug-In . SVG Version: 6.00 Build 14948)  -->
<!DOCTYPE svg PUBLIC "-//W3C//DTD SVG 1.0//EN" "http://www.w3.org/TR/2001/REC-SVG-20010904/DTD/svg10.dtd">
<svg version="1.0" id="Layer_1" xmlns="http://www.w3.org/2000/svg" xmlns:xlink="http://www.w3.org/1999/xlink" x="0px" y="0px"
	 width="173px" height="60px" viewBox="0 0 173 60" enable-background="new 0 0 173 60" xml:space="preserve">
<g>
	<g>
		<g display="none">
			<g display="inline">
				<path fill="#E12228" d="M24.409,59.148H0.249c-0.068,0-0.125-0.061-0.125-0.127V0.252c0-0.069,0.058-0.126,0.125-0.126h15.156
					c2.294,0,4.467,0.307,6.464,0.912c2.003,0.607,3.78,1.542,5.284,2.779c1.508,1.24,2.705,2.792,3.557,4.612
					c0.849,1.824,1.281,4,1.281,6.474c0,1.763-0.321,3.467-0.952,5.068c-0.63,1.597-1.505,3.021-2.602,4.237
					c-1.098,1.211-2.578,2.537-5.247,3.382c3.584,0.013,4.845,0.11,7.104,0.502c2.172,0.376,2.842,0.646,4.175,1.184l0.506,0.205
					c1.725,0.687,3.254,1.666,4.546,2.904c1.285,1.238,2.328,2.773,3.102,4.57c0.769,1.799,1.157,3.854,1.157,6.1
					c0,2.639-0.489,4.994-1.446,7.008c-0.96,2.015-2.308,3.703-4.009,5.027c-1.696,1.32-3.763,2.338-6.143,3.025
					C29.81,58.801,27.192,59.148,24.409,59.148L24.409,59.148z M2.013,57.25h23.133c2.382,0,4.615-0.287,6.641-0.857
					c2.026-0.572,3.804-1.449,5.282-2.613c1.478-1.159,2.662-2.641,3.526-4.399c0.861-1.76,1.295-3.856,1.295-6.241
					c0-2.537-0.477-4.705-1.416-6.439c-0.941-1.73-2.196-3.154-3.729-4.234c-1.541-1.088-3.317-1.885-5.282-2.37
					c-1.972-0.491-4.013-0.738-6.072-0.738H2.013V57.25L2.013,57.25z M2.013,27.453h13.392c1.943,0,3.821-0.261,5.576-0.776
					c1.745-0.512,3.315-1.31,4.667-2.365c1.348-1.059,2.437-2.388,3.239-3.952c0.808-1.565,1.216-3.401,1.216-5.458
					c0-2.218-0.381-4.152-1.135-5.75c-0.755-1.599-1.803-2.941-3.118-3.989c-1.317-1.054-2.887-1.85-4.665-2.365
					c-1.791-0.516-3.733-0.776-5.78-0.776H2.013V27.453L2.013,27.453z"/>
				<path fill="#E12228" d="M15.404,0.251c2.294,0,4.436,0.302,6.429,0.906c1.992,0.604,3.74,1.522,5.242,2.758
					c1.5,1.234,2.674,2.757,3.521,4.568c0.846,1.811,1.27,3.951,1.27,6.42c0,1.758-0.316,3.431-0.942,5.021
					c-0.628,1.593-1.489,2.992-2.579,4.199c-1.094,1.208-2.73,2.755-6.059,3.591c4.327,0,5.576,0.084,7.989,0.502
					s2.938,0.695,4.657,1.381c1.72,0.686,3.221,1.647,4.504,2.881c1.283,1.23,2.306,2.742,3.072,4.525
					c0.763,1.783,1.147,3.801,1.147,6.051c0,2.635-0.48,4.951-1.434,6.953c-0.956,2.006-2.28,3.662-3.972,4.98
					c-1.693,1.316-3.728,2.318-6.102,3.006c-2.376,0.688-4.955,1.025-7.739,1.025H0.25V0.251H15.404 M1.888,27.579h13.517
					c1.966,0,3.835-0.26,5.61-0.781c1.773-0.521,3.343-1.317,4.708-2.387c1.363-1.07,2.458-2.399,3.275-3.993
					c0.819-1.591,1.229-3.429,1.229-5.515c0-2.249-0.383-4.184-1.147-5.802c-0.764-1.618-1.813-2.963-3.152-4.034
					c-1.338-1.07-2.906-1.865-4.708-2.387c-1.802-0.521-3.741-0.782-5.815-0.782H1.888V27.579 M1.888,57.377h23.257
					c2.401,0,4.626-0.287,6.675-0.863c2.046-0.576,3.821-1.453,5.323-2.637c1.5-1.178,2.688-2.66,3.562-4.443
					c0.872-1.781,1.311-3.883,1.311-6.299c0-2.576-0.479-4.742-1.434-6.5c-0.956-1.758-2.21-3.184-3.766-4.279
					c-1.557-1.1-3.332-1.895-5.323-2.389c-1.994-0.494-4.028-0.741-6.102-0.741H1.888V57.377 M15.404,0H0.25
					C0.111,0,0,0.113,0,0.251v58.771c0,0.142,0.111,0.252,0.25,0.252h24.159c2.798,0,5.426-0.35,7.808-1.037
					c2.395-0.69,4.475-1.719,6.186-3.049c1.716-1.338,3.076-3.043,4.043-5.067c0.968-2.031,1.458-4.408,1.458-7.062
					c0-2.271-0.394-4.338-1.168-6.148c-0.778-1.811-1.831-3.361-3.128-4.609c-1.302-1.252-2.843-2.238-4.585-2.933L34.52,29.16
					c-1.342-0.542-2.016-0.813-4.201-1.192c-2.112-0.366-3.352-0.477-6.395-0.5c2.266-0.851,3.594-2.062,4.604-3.177
					c1.107-1.224,1.991-2.662,2.626-4.274c0.637-1.618,0.96-3.339,0.96-5.114c0-2.495-0.435-4.69-1.293-6.527
					c-0.858-1.836-2.066-3.402-3.589-4.655c-1.519-1.249-3.311-2.192-5.327-2.804C19.898,0.309,17.71,0,15.404,0L15.404,0z
					 M2.137,2.148h13.267c2.039,0,3.972,0.26,5.746,0.772c1.761,0.511,3.317,1.299,4.623,2.343c1.298,1.038,2.336,2.366,3.083,3.945
					c0.745,1.577,1.122,3.493,1.122,5.694c0,2.036-0.404,3.853-1.2,5.4c-0.795,1.548-1.874,2.863-3.208,3.91
					c-1.333,1.045-2.889,1.834-4.625,2.344c-1.741,0.512-3.605,0.771-5.54,0.771H2.137V2.148L2.137,2.148z M2.137,29.477h23.254
					c2.044,0,4.077,0.247,6.042,0.733c1.952,0.483,3.715,1.274,5.24,2.351c1.517,1.068,2.758,2.48,3.691,4.193
					c0.931,1.717,1.403,3.861,1.403,6.381c0,2.363-0.432,4.445-1.285,6.189c-0.853,1.74-2.028,3.207-3.492,4.355
					c-1.465,1.153-3.226,2.024-5.236,2.592c-2.017,0.565-4.24,0.854-6.608,0.854H2.137V29.477L2.137,29.477z"/>
			</g>
		</g>
		<g>
			<path fill="#E12228" d="M60.85,59.749c-2.228,0-4.229-0.447-5.948-1.33c-1.71-0.881-3.176-2.076-4.353-3.562
				c-1.172-1.479-2.068-3.209-2.667-5.147c-0.593-1.928-0.895-3.978-0.895-6.084s0.301-4.155,0.895-6.086
				c0.598-1.938,1.495-3.668,2.667-5.146c1.177-1.48,2.641-2.688,4.351-3.587c1.717-0.904,3.739-1.362,6.008-1.362
				c2.232,0,4.233,0.458,5.95,1.362c1.709,0.899,3.173,2.107,4.354,3.587c1.172,1.483,2.069,3.217,2.665,5.146
				c0.594,1.931,0.895,3.979,0.895,6.086s-0.3,4.156-0.895,6.084c-0.595,1.935-1.492,3.666-2.665,5.146
				c-1.179,1.486-2.645,2.685-4.356,3.562C65.137,59.301,63.117,59.749,60.85,59.749L60.85,59.749z M60.908,29.128
				c-1.991,0-3.766,0.409-5.274,1.214c-1.511,0.809-2.803,1.893-3.84,3.223c-1.035,1.328-1.822,2.888-2.344,4.625
				c-0.521,1.748-0.785,3.576-0.785,5.438c0,1.897,0.264,3.748,0.785,5.494c0.522,1.737,1.309,3.297,2.344,4.625
				c1.037,1.33,2.327,2.401,3.837,3.188c1.511,0.789,3.285,1.188,5.276,1.188c1.952,0,3.708-0.397,5.219-1.188
				c1.513-0.787,2.803-1.858,3.838-3.188c1.037-1.328,1.824-2.888,2.343-4.625c0.521-1.746,0.785-3.597,0.785-5.494
				c0-1.858-0.264-3.688-0.785-5.438c-0.52-1.737-1.306-3.297-2.343-4.625c-1.035-1.33-2.327-2.414-3.84-3.223
				C64.614,29.537,62.859,29.128,60.908,29.128L60.908,29.128z"/>
			<path fill="#E12228" d="M60.908,27.693c2.2,0,4.144,0.444,5.834,1.332c1.688,0.889,3.113,2.063,4.272,3.524
				c1.158,1.461,2.033,3.148,2.623,5.064c0.588,1.914,0.883,3.918,0.883,6.01c0,2.094-0.295,4.098-0.883,6.012
				c-0.589,1.916-1.464,3.605-2.623,5.064c-1.159,1.461-2.583,2.627-4.272,3.494c-1.69,0.867-3.653,1.303-5.893,1.303
				c-2.2,0-4.145-0.436-5.833-1.303c-1.689-0.867-3.114-2.033-4.271-3.494c-1.159-1.461-2.033-3.148-2.622-5.064
				c-0.59-1.914-0.885-3.918-0.885-6.012c0-2.092,0.295-4.096,0.885-6.01c0.589-1.916,1.462-3.605,2.622-5.064
				c1.158-1.461,2.583-2.635,4.271-3.524C56.705,28.137,58.669,27.693,60.908,27.693 M60.908,58.374
				c2.004,0,3.781-0.406,5.333-1.215c1.552-0.81,2.858-1.896,3.919-3.259c1.06-1.36,1.856-2.934,2.386-4.709
				c0.53-1.774,0.795-3.631,0.795-5.565c0-1.896-0.265-3.729-0.795-5.508c-0.53-1.777-1.326-3.347-2.386-4.709
				c-1.061-1.361-2.367-2.458-3.919-3.288c-1.552-0.829-3.329-1.244-5.333-1.244c-2.042,0-3.84,0.415-5.392,1.244
				c-1.552,0.83-2.858,1.926-3.918,3.288c-1.061,1.362-1.856,2.932-2.387,4.709c-0.529,1.776-0.795,3.612-0.795,5.508
				c0,1.937,0.266,3.791,0.795,5.565c0.53,1.775,1.326,3.349,2.387,4.709c1.06,1.363,2.366,2.449,3.918,3.259
				C57.068,57.967,58.866,58.374,60.908,58.374 M60.908,27.191c-2.31,0-4.371,0.468-6.124,1.39
				c-1.743,0.917-3.234,2.147-4.431,3.655c-1.192,1.505-2.104,3.263-2.708,5.229c-0.602,1.953-0.907,4.025-0.907,6.158
				c0,2.135,0.305,4.207,0.907,6.16c0.604,1.967,1.516,3.727,2.708,5.229c1.198,1.51,2.691,2.729,4.435,3.627
				C56.541,59.543,58.581,60,60.849,60c2.308,0,4.366-0.457,6.121-1.357c1.743-0.896,3.235-2.117,4.435-3.629
				c1.193-1.506,2.104-3.264,2.708-5.229c0.602-1.955,0.907-4.027,0.907-6.16c0-2.131-0.305-4.203-0.907-6.158
				c-0.604-1.965-1.515-3.723-2.708-5.229c-1.198-1.51-2.689-2.74-4.431-3.657C65.219,27.659,63.178,27.191,60.908,27.191
				L60.908,27.191z M60.908,57.872c-1.953,0-3.689-0.392-5.161-1.158c-1.48-0.771-2.744-1.819-3.755-3.121
				c-1.018-1.307-1.792-2.836-2.302-4.545c-0.514-1.721-0.773-3.547-0.773-5.422c0-1.838,0.259-3.644,0.773-5.365
				c0.51-1.704,1.285-3.233,2.302-4.543c1.013-1.301,2.277-2.36,3.759-3.153c1.471-0.786,3.206-1.185,5.157-1.185
				c1.911,0,3.626,0.399,5.099,1.185c1.481,0.793,2.747,1.854,3.759,3.156c1.017,1.307,1.792,2.836,2.301,4.54
				c0.514,1.726,0.774,3.527,0.774,5.365c0,1.875-0.26,3.701-0.774,5.422c-0.51,1.709-1.284,3.238-2.301,4.543
				c-1.012,1.302-2.275,2.353-3.755,3.121C64.538,57.48,62.821,57.872,60.908,57.872L60.908,57.872z"/>
		</g>
		<g>
			<path fill="#E12228" d="M99.562,59.098h-1.476c-0.078,0-0.149-0.035-0.196-0.098L86.658,44.393L75.483,59
				c-0.047,0.062-0.12,0.098-0.198,0.098H73.87c-0.094,0-0.181-0.055-0.224-0.143c-0.042-0.084-0.03-0.186,0.027-0.262L85.636,43.09
				L74.733,28.554c-0.056-0.077-0.066-0.179-0.023-0.263c0.041-0.085,0.128-0.139,0.223-0.139h1.531c0.079,0,0.153,0.037,0.2,0.102
				l9.996,13.532l10.229-13.534c0.047-0.062,0.119-0.1,0.197-0.1h1.416c0.096,0,0.182,0.054,0.225,0.139
				c0.041,0.084,0.031,0.188-0.022,0.263L87.738,43.09L99.76,58.693c0.059,0.074,0.066,0.181,0.025,0.265
				C99.744,59.043,99.658,59.098,99.562,59.098L99.562,59.098z"/>
			<path fill="#E12228" d="M98.502,28.404L87.424,43.092l12.139,15.754H98.09L86.658,43.98L75.286,58.846h-1.415l12.081-15.754
				l-11.02-14.688h1.532l10.195,13.8l10.43-13.8H98.502 M98.502,27.902H97.09c-0.156,0-0.305,0.073-0.4,0.198L86.662,41.368
				l-9.796-13.263c-0.094-0.128-0.243-0.203-0.401-0.203h-1.532c-0.189,0-0.362,0.107-0.447,0.277
				c-0.084,0.17-0.066,0.375,0.048,0.526l10.79,14.383l-11.847,15.45c-0.116,0.151-0.137,0.356-0.053,0.528
				c0.083,0.173,0.258,0.279,0.447,0.279h1.415c0.155,0,0.301-0.072,0.396-0.195l10.979-14.35l11.032,14.352
				c0.097,0.123,0.24,0.193,0.396,0.193h1.473c0.189,0,0.365-0.106,0.449-0.281c0.084-0.17,0.062-0.375-0.053-0.526l-11.906-15.45
				L98.9,28.706c0.115-0.152,0.137-0.356,0.051-0.526C98.865,28.01,98.691,27.902,98.502,27.902L98.502,27.902z"/>
		</g>
		<g>
			<path fill="#E12228" d="M112.468,59.749c-2.187,0-4.155-0.416-5.856-1.238c-1.694-0.823-3.143-1.95-4.293-3.354
				c-1.151-1.396-2.036-3.05-2.639-4.912c-0.596-1.853-0.895-3.859-0.895-5.968c0-2.227,0.289-4.368,0.861-6.377
				c0.576-2.021,1.463-3.819,2.637-5.354c1.174-1.539,2.688-2.79,4.504-3.713c1.812-0.922,3.965-1.388,6.388-1.388
				c1.433,0,2.828,0.224,4.146,0.663c1.318,0.443,2.519,1.096,3.556,1.94c1.039,0.845,1.924,1.915,2.625,3.183
				c0.701,1.271,1.156,2.746,1.354,4.387c0.008,0.07-0.015,0.143-0.06,0.195c-0.049,0.055-0.114,0.086-0.188,0.086h-1.181
				c-0.122,0-0.227-0.09-0.247-0.213c-0.229-1.459-0.654-2.734-1.263-3.791c-0.61-1.058-1.367-1.949-2.24-2.656
				c-0.877-0.709-1.881-1.24-2.981-1.584c-1.109-0.346-2.295-0.522-3.521-0.522c-2.339,0-4.351,0.458-5.974,1.362
				c-1.631,0.904-2.949,2.095-3.924,3.533c-0.982,1.453-1.703,3.1-2.146,4.896c-0.443,1.812-0.672,3.613-0.672,5.356
				c0,1.82,0.266,3.589,0.785,5.257c0.52,1.657,1.287,3.146,2.287,4.42c0.988,1.271,2.25,2.291,3.742,3.041
				c1.49,0.748,3.238,1.131,5.191,1.131c1.455,0,2.834-0.229,4.1-0.668c1.265-0.44,2.396-1.094,3.367-1.938
				c0.979-0.85,1.777-1.871,2.392-3.037c0.606-1.174,0.979-2.522,1.09-4.02c0.012-0.131,0.119-0.23,0.25-0.23h1.176
				c0.07,0,0.142,0.027,0.187,0.08c0.049,0.056,0.072,0.123,0.063,0.191c-0.155,1.721-0.582,3.293-1.262,4.678
				c-0.681,1.385-1.58,2.576-2.683,3.545c-1.104,0.967-2.399,1.722-3.854,2.236C115.831,59.486,114.206,59.749,112.468,59.749
				L112.468,59.749z"/>
			<path fill="#E12228" d="M113.173,27.693c1.414,0,2.771,0.218,4.065,0.652c1.298,0.434,2.455,1.065,3.478,1.895
				c1.021,0.828,1.877,1.865,2.563,3.109c0.687,1.242,1.13,2.674,1.324,4.293h-1.178c-0.236-1.5-0.67-2.793-1.299-3.879
				c-0.629-1.088-1.396-1.994-2.297-2.727c-0.904-0.729-1.926-1.272-3.064-1.628c-1.141-0.354-2.338-0.533-3.596-0.533
				c-2.396,0-4.427,0.465-6.098,1.392c-1.67,0.93-3.008,2.13-4.01,3.613c-1.002,1.479-1.729,3.141-2.18,4.977
				c-0.453,1.836-0.678,3.644-0.678,5.42c0,1.854,0.266,3.634,0.795,5.328c0.531,1.699,1.307,3.199,2.33,4.502
				c1.02,1.304,2.297,2.341,3.828,3.107c1.531,0.771,3.301,1.156,5.304,1.156c1.492,0,2.888-0.229,4.183-0.684
				c1.297-0.453,2.444-1.113,3.448-1.982c1-0.869,1.816-1.904,2.443-3.107c0.627-1.205,1.002-2.576,1.121-4.117h1.178
				c-0.155,1.699-0.569,3.229-1.237,4.59c-0.668,1.363-1.543,2.519-2.621,3.466c-1.08,0.946-2.338,1.68-3.771,2.19
				c-1.438,0.515-3.019,0.771-4.742,0.771c-2.161,0-4.075-0.406-5.745-1.215c-1.67-0.81-3.074-1.904-4.213-3.287
				c-1.141-1.381-2.004-2.99-2.594-4.826s-0.883-3.799-0.883-5.894c0-2.213,0.281-4.312,0.854-6.311
				c0.568-1.992,1.434-3.75,2.594-5.27c1.158-1.521,2.631-2.734,4.42-3.644C108.686,28.147,110.777,27.693,113.173,27.693
				 M113.173,27.191c-2.464,0-4.651,0.477-6.501,1.417c-1.846,0.938-3.391,2.212-4.588,3.785c-1.193,1.562-2.094,3.396-2.678,5.438
				c-0.58,2.026-0.873,4.194-0.873,6.446c0,2.136,0.305,4.168,0.908,6.046c0.604,1.895,1.512,3.571,2.684,4.993
				c1.18,1.433,2.652,2.582,4.381,3.418c1.73,0.841,3.736,1.267,5.962,1.267c1.773,0,3.425-0.271,4.91-0.801
				c1.483-0.529,2.808-1.3,3.933-2.285c1.125-0.988,2.047-2.207,2.739-3.621c0.693-1.41,1.127-3.015,1.289-4.767
				c0.013-0.143-0.034-0.278-0.129-0.385c-0.097-0.104-0.229-0.164-0.369-0.164h-1.178c-0.265,0-0.479,0.203-0.498,0.465
				c-0.113,1.461-0.472,2.781-1.063,3.923c-0.599,1.141-1.379,2.139-2.33,2.961c-0.947,0.823-2.056,1.459-3.281,1.891
				c-1.24,0.437-2.596,0.654-4.021,0.654c-1.917,0-3.626-0.371-5.08-1.104c-1.459-0.731-2.691-1.731-3.66-2.973
				c-0.979-1.248-1.732-2.709-2.242-4.34c-0.514-1.643-0.773-3.383-0.773-5.182c0-1.73,0.225-3.515,0.664-5.299
				c0.436-1.771,1.145-3.39,2.107-4.812c0.951-1.406,2.24-2.57,3.836-3.456c1.59-0.881,3.559-1.33,5.854-1.33
				c1.201,0,2.361,0.171,3.447,0.511c1.07,0.334,2.047,0.853,2.898,1.542c0.85,0.688,1.582,1.559,2.18,2.586
				c0.596,1.026,1.012,2.272,1.234,3.702c0.037,0.244,0.246,0.425,0.493,0.425h1.179c0.145,0,0.276-0.062,0.373-0.17
				c0.098-0.105,0.141-0.25,0.123-0.394c-0.205-1.677-0.67-3.183-1.388-4.478c-0.715-1.295-1.616-2.392-2.688-3.256
				c-1.061-0.863-2.282-1.528-3.633-1.981C116.057,27.419,114.634,27.191,113.173,27.191L113.173,27.191z"/>
		</g>
		<g>
			<path fill="#E12228" d="M138.624,59.75c-3.104,0-5.631-0.705-7.515-2.094c-1.907-1.404-2.873-3.535-2.873-6.334
				c0-1.928,0.316-3.5,0.943-4.678c0.625-1.181,1.457-2.115,2.469-2.785c1.008-0.668,2.166-1.137,3.447-1.396
				c1.268-0.26,2.547-0.43,3.803-0.508c2.086-0.119,3.869-0.227,5.363-0.328c1.463-0.096,2.684-0.291,3.625-0.58
				c0.906-0.279,1.578-0.709,1.992-1.271c0.42-0.562,0.631-1.397,0.631-2.485c0-0.877-0.076-1.817-0.23-2.806
				c-0.149-0.938-0.521-1.819-1.104-2.612c-0.584-0.793-1.455-1.454-2.584-1.963c-1.141-0.516-2.711-0.775-4.672-0.775
				c-3.105,0-5.547,0.766-7.258,2.276c-1.709,1.508-2.672,3.672-2.863,6.432c-0.01,0.135-0.119,0.234-0.248,0.234h-1.18
				c-0.066,0-0.135-0.029-0.184-0.078c-0.047-0.051-0.068-0.115-0.064-0.188c0.076-1.438,0.381-2.812,0.898-4.08
				c0.521-1.271,1.285-2.388,2.271-3.312c0.979-0.929,2.196-1.663,3.617-2.187c1.422-0.522,3.104-0.787,5.008-0.787
				c1.347,0,2.642,0.144,3.854,0.422c1.229,0.286,2.322,0.788,3.246,1.496c0.933,0.709,1.688,1.646,2.254,2.785
				c0.564,1.133,0.869,2.561,0.91,4.252V55.77c0,0.525,0.098,0.912,0.295,1.14c0.203,0.239,0.469,0.396,0.812,0.481
				c0.305,0.074,0.633,0.115,0.975,0.115c0.074,0,0.146-0.002,0.221-0.008c0.449-0.018,0.865-0.045,1.254-0.084
				c0.011,0,0.017,0,0.021,0c0.062,0,0.125,0.021,0.17,0.062c0.053,0.047,0.084,0.114,0.084,0.188v1.184
				c0,0.142-0.111,0.252-0.252,0.252h-1.768c-0.91,0-1.719-0.223-2.402-0.658c-0.723-0.463-1.088-1.319-1.088-2.553v-2.93
				c-0.303,0.666-0.695,1.322-1.172,1.955c-0.699,0.924-1.592,1.76-2.65,2.482c-1.057,0.721-2.274,1.299-3.631,1.719
				C141.704,59.536,140.212,59.75,138.624,59.75L138.624,59.75z M150.514,41.5c-0.406,0.406-0.947,0.73-1.613,0.971
				c-0.842,0.303-1.812,0.533-2.875,0.689c-1.053,0.16-2.224,0.26-3.476,0.303c-1.235,0.039-2.44,0.096-3.614,0.176
				c-1.168,0.08-2.314,0.229-3.416,0.439c-1.082,0.211-2.054,0.594-2.888,1.148c-0.821,0.543-1.487,1.307-1.979,2.271
				c-0.487,0.965-0.733,2.25-0.733,3.821c0,0.839,0.144,1.681,0.429,2.494c0.276,0.806,0.76,1.525,1.436,2.148
				c0.678,0.625,1.57,1.146,2.658,1.547c1.086,0.404,2.453,0.607,4.065,0.607c1.918,0,3.647-0.33,5.146-0.986
				c1.494-0.654,2.768-1.521,3.779-2.58c1.016-1.055,1.786-2.291,2.303-3.674c0.518-1.387,0.779-2.83,0.779-4.293V41.5L150.514,41.5
				z"/>
			<path fill="#E12228" d="M141.923,27.693c1.336,0,2.603,0.139,3.802,0.415c1.196,0.276,2.25,0.761,3.151,1.451
				c0.903,0.691,1.631,1.589,2.181,2.695c0.551,1.105,0.846,2.486,0.885,4.146v19.365c0,0.594,0.117,1.024,0.354,1.305
				c0.238,0.277,0.553,0.463,0.945,0.561c0.324,0.082,0.672,0.123,1.037,0.123c0.076,0,0.149,0,0.229-0.004
				c0.451-0.021,0.875-0.049,1.27-0.088v1.186h-1.77c-0.865,0-1.619-0.207-2.271-0.621c-0.646-0.416-0.973-1.194-0.973-2.342v-3.969
				h-0.117c-0.312,0.986-0.813,1.938-1.502,2.844c-0.688,0.908-1.553,1.719-2.594,2.43s-2.229,1.271-3.564,1.688
				c-1.336,0.414-2.789,0.621-4.356,0.621c-3.063,0-5.521-0.683-7.366-2.043c-1.849-1.36-2.771-3.406-2.771-6.131
				c0-1.896,0.305-3.414,0.911-4.562c0.609-1.146,1.402-2.043,2.39-2.693c0.979-0.651,2.103-1.104,3.356-1.36
				c1.256-0.258,2.517-0.426,3.771-0.504c2.082-0.119,3.869-0.228,5.363-0.326c1.49-0.098,2.719-0.297,3.684-0.592
				c0.963-0.297,1.67-0.75,2.119-1.363c0.453-0.61,0.68-1.487,0.68-2.635c0-0.908-0.08-1.854-0.236-2.845
				c-0.155-0.985-0.538-1.896-1.147-2.725c-0.606-0.828-1.502-1.511-2.68-2.042c-1.181-0.533-2.771-0.8-4.772-0.8
				c-3.183,0-5.656,0.781-7.425,2.339c-1.771,1.562-2.75,3.762-2.946,6.604h-1.179c0.078-1.42,0.373-2.752,0.884-3.995
				c0.51-1.242,1.245-2.318,2.211-3.229c0.961-0.907,2.143-1.619,3.534-2.133C138.396,27.95,140.038,27.693,141.923,27.693
				 M138.507,58.374c1.964,0,3.711-0.336,5.242-1.008c1.533-0.673,2.817-1.55,3.858-2.638c1.041-1.084,1.826-2.338,2.355-3.762
				c0.531-1.422,0.797-2.881,0.797-4.383v-5.625h-0.117c-0.395,0.555-1.002,0.979-1.828,1.273c-0.823,0.295-1.768,0.522-2.826,0.682
				c-1.062,0.158-2.211,0.258-3.446,0.297c-1.237,0.039-2.447,0.1-3.625,0.178c-1.179,0.08-2.326,0.229-3.444,0.443
				c-1.121,0.217-2.113,0.611-2.978,1.186c-0.865,0.572-1.554,1.361-2.062,2.369c-0.513,1.008-0.767,2.318-0.767,3.938
				c0,0.87,0.146,1.729,0.438,2.575c0.295,0.853,0.799,1.601,1.504,2.252c0.707,0.652,1.621,1.185,2.74,1.599
				C135.473,58.165,136.854,58.374,138.507,58.374 M141.923,27.191c-1.935,0-3.647,0.27-5.092,0.8
				c-1.451,0.534-2.699,1.288-3.705,2.239c-1.012,0.954-1.795,2.099-2.33,3.401c-0.53,1.289-0.84,2.689-0.92,4.16
				c-0.008,0.139,0.041,0.273,0.136,0.373c0.094,0.102,0.227,0.156,0.362,0.156h1.178c0.263,0,0.48-0.203,0.498-0.465
				c0.188-2.693,1.121-4.801,2.777-6.265c1.668-1.47,4.055-2.215,7.096-2.215c1.923,0,3.461,0.254,4.568,0.756
				c1.092,0.493,1.928,1.127,2.481,1.886c0.56,0.76,0.914,1.604,1.06,2.506c0.151,0.963,0.229,1.895,0.229,2.764
				c0,1.029-0.194,1.816-0.577,2.336c-0.386,0.521-1.015,0.918-1.867,1.182c-0.926,0.283-2.127,0.479-3.566,0.57
				c-1.492,0.102-3.279,0.207-5.357,0.326c-1.279,0.08-2.57,0.254-3.844,0.514c-1.312,0.27-2.504,0.75-3.533,1.436
				c-1.049,0.695-1.906,1.662-2.553,2.877c-0.646,1.216-0.973,2.826-0.973,4.798c0,2.881,1,5.079,2.973,6.534
				c1.928,1.42,4.504,2.142,7.662,2.142c1.609,0,3.129-0.217,4.508-0.646c1.375-0.428,2.621-1.018,3.699-1.75
				c1.084-0.742,1.994-1.598,2.709-2.541c0.268-0.354,0.51-0.715,0.725-1.082v1.902c0,1.322,0.404,2.254,1.203,2.766
				c0.727,0.466,1.58,0.699,2.537,0.699h1.768c0.275,0,0.5-0.227,0.5-0.502v-1.186c0-0.145-0.061-0.277-0.164-0.373
				c-0.092-0.084-0.211-0.129-0.336-0.129c-0.018,0-0.03,0-0.047,0.002c-0.387,0.037-0.805,0.066-1.242,0.086
				c-0.067,0.004-0.137,0.004-0.205,0.004c-0.321,0-0.631-0.035-0.915-0.105c-0.296-0.071-0.521-0.205-0.688-0.401
				c-0.152-0.179-0.234-0.519-0.234-0.978V36.398c-0.037-1.735-0.354-3.203-0.936-4.369c-0.582-1.17-1.363-2.135-2.324-2.87
				c-0.957-0.73-2.08-1.249-3.344-1.541C144.602,27.334,143.284,27.191,141.923,27.191L141.923,27.191z M138.507,57.872
				c-1.584,0-2.922-0.199-3.981-0.593c-1.055-0.391-1.922-0.896-2.574-1.497c-0.645-0.595-1.105-1.281-1.367-2.046
				c-0.275-0.793-0.416-1.604-0.416-2.411c0-1.533,0.24-2.781,0.713-3.709c0.469-0.927,1.104-1.658,1.893-2.181
				c0.808-0.533,1.746-0.906,2.795-1.108c1.095-0.213,2.23-0.359,3.39-0.438c1.153-0.078,2.371-0.139,3.604-0.18
				c1.246-0.039,2.426-0.141,3.504-0.301c1.08-0.158,2.062-0.396,2.925-0.705c0.489-0.176,0.918-0.395,1.274-0.662v4.543
				c0,1.436-0.258,2.852-0.764,4.207c-0.504,1.352-1.262,2.559-2.248,3.588c-0.99,1.033-2.236,1.885-3.701,2.523
				C142.089,57.545,140.393,57.872,138.507,57.872L138.507,57.872z"/>
		</g>
		<g>
			<path fill="#E12228" d="M160.475,59.096h-1.177c-0.137,0-0.248-0.111-0.248-0.25V28.404c0-0.139,0.111-0.251,0.248-0.251h1.177
				c0.14,0,0.25,0.112,0.25,0.251v6.204c0.254-0.707,0.57-1.389,0.949-2.037c0.605-1.028,1.416-1.939,2.422-2.708
				c0.998-0.763,2.203-1.374,3.582-1.817c1.262-0.403,2.738-0.609,4.387-0.609l0.438,0.006c0.14,0.002,0.244,0.113,0.244,0.25v1.186
				c0,0.069-0.024,0.136-0.076,0.184c-0.045,0.042-0.106,0.066-0.172,0.066c-0.004,0-0.01,0-0.019,0
				c-0.301-0.017-0.596-0.024-0.883-0.024c-1.662,0-3.139,0.29-4.389,0.863c-1.471,0.673-2.699,1.605-3.652,2.773
				c-0.955,1.17-1.674,2.547-2.137,4.09c-0.461,1.549-0.695,3.155-0.695,4.778v17.236C160.725,58.984,160.613,59.096,160.475,59.096
				L160.475,59.096z"/>
			<path fill="#E12228" d="M172.057,27.688c0.146,0,0.293,0.002,0.441,0.005v1.184c-0.307-0.017-0.604-0.025-0.896-0.025
				c-1.707,0-3.205,0.295-4.498,0.885c-1.512,0.691-2.76,1.639-3.74,2.844c-0.979,1.205-1.706,2.596-2.182,4.174
				c-0.471,1.58-0.705,3.199-0.705,4.856v17.234h-1.179V28.404h1.179v7.521h0.117c0.273-1.146,0.707-2.221,1.297-3.227
				c0.59-1.009,1.373-1.888,2.355-2.637c0.979-0.75,2.15-1.342,3.508-1.777C168.998,27.888,170.434,27.688,172.057,27.688
				 M172.057,27.187c-1.67,0-3.168,0.209-4.453,0.622c-1.403,0.451-2.637,1.074-3.655,1.854c-1.029,0.787-1.865,1.72-2.484,2.78
				c-0.174,0.3-0.336,0.604-0.481,0.914v-4.954c0-0.278-0.226-0.502-0.5-0.502h-1.178c-0.277,0-0.5,0.224-0.5,0.502v30.442
				c0,0.277,0.223,0.502,0.5,0.502h1.178c0.274,0,0.5-0.225,0.5-0.502V41.611c0-1.602,0.229-3.188,0.686-4.713
				c0.449-1.508,1.152-2.854,2.088-4.002c0.928-1.139,2.125-2.047,3.562-2.704c1.221-0.558,2.664-0.84,4.291-0.84
				c0.281,0,0.57,0.008,0.865,0.024c0.01,0.001,0.02,0.001,0.026,0.001c0.127,0,0.25-0.049,0.345-0.137
				c0.1-0.094,0.155-0.227,0.155-0.365v-1.184c0-0.273-0.217-0.496-0.487-0.502C172.355,27.188,172.205,27.187,172.057,27.187
				L172.057,27.187z"/>
		</g>
	</g>
	<g>
		<g>
			<path fill="#E12228" d="M24.409,59.146H0.256c-0.07,0-0.128-0.062-0.128-0.129V0.258c0-0.071,0.059-0.129,0.128-0.129h21.615
				c2.288,0,4.461,0.308,6.462,0.912c1.999,0.607,3.776,1.543,5.286,2.78c1.507,1.241,2.704,2.795,3.555,4.612
				c0.848,1.818,1.28,3.995,1.28,6.473c0,1.763-0.321,3.468-0.952,5.067c-0.627,1.595-1.502,3.02-2.604,4.238
				c-1.076,1.19-2.397,2.184-3.925,2.95c-0.697,0.35-1.604,0.634-2.269,0.816c0.304,0.018,0.655,0.041,1.019,0.077
				c1.235,0.124,3.59,0.761,5.251,1.423c1.729,0.692,3.258,1.669,4.545,2.906c1.285,1.238,2.328,2.775,3.101,4.566
				c0.767,1.799,1.156,3.85,1.156,6.1c0,2.639-0.487,4.998-1.445,7.012c-0.96,2.01-2.307,3.697-4.008,5.023
				c-1.697,1.322-3.766,2.342-6.143,3.025C29.811,58.797,27.195,59.146,24.409,59.146L24.409,59.146z M2.023,57.241h23.124
				c2.377,0,4.609-0.289,6.638-0.859c2.016-0.563,3.792-1.442,5.278-2.608c1.477-1.16,2.664-2.644,3.524-4.398
				c0.862-1.754,1.297-3.854,1.297-6.242c0-2.541-0.478-4.707-1.417-6.436c-0.939-1.729-2.193-3.154-3.728-4.232
				c-1.539-1.088-3.316-1.883-5.28-2.37c-1.972-0.489-4.012-0.736-6.068-0.736H2.023V57.241L2.023,57.241z M2.023,27.45h19.848
				c1.942,0,3.814-0.261,5.572-0.776c1.749-0.514,3.32-1.309,4.664-2.362c1.344-1.057,2.436-2.387,3.24-3.952
				c0.805-1.561,1.212-3.396,1.212-5.455c0-2.219-0.38-4.151-1.134-5.746c-0.751-1.591-1.799-2.934-3.115-3.989
				c-1.318-1.052-2.887-1.847-4.663-2.362c-1.781-0.514-3.725-0.774-5.776-0.774H2.023V27.45L2.023,27.45z"/>
			<path fill="#E12228" d="M21.871,0.258c2.293,0,4.434,0.302,6.426,0.905c1.993,0.605,3.737,1.523,5.241,2.758
				c1.5,1.235,2.673,2.756,3.52,4.567c0.846,1.81,1.269,3.95,1.269,6.419c0,1.756-0.315,3.429-0.941,5.02
				c-0.629,1.592-1.489,2.99-2.58,4.197c-1.092,1.208-2.393,2.17-3.889,2.921c-1.226,0.617-3.145,1.034-3.145,1.034
				s0.928,0,1.94,0.101c1.148,0.116,3.497,0.73,5.217,1.417c1.719,0.685,3.22,1.646,4.502,2.879c1.283,1.232,2.306,2.744,3.07,4.523
				c0.764,1.783,1.147,3.799,1.147,6.049c0,2.635-0.479,4.951-1.434,6.955c-0.955,2.002-2.279,3.66-3.971,4.979
				c-1.692,1.316-3.725,2.318-6.1,3.004c-2.375,0.688-4.953,1.029-7.736,1.029H0.256V0.258H21.871 M1.894,27.58h19.977
				c1.965,0,3.833-0.26,5.607-0.782c1.774-0.521,3.342-1.316,4.708-2.386c1.363-1.069,2.456-2.399,3.274-3.991
				c0.819-1.591,1.229-3.429,1.229-5.514c0-2.25-0.383-4.183-1.147-5.801c-0.765-1.618-1.815-2.962-3.152-4.032
				c-1.337-1.071-2.906-1.865-4.707-2.387c-1.802-0.521-3.741-0.781-5.812-0.781H1.894V27.58 M1.894,57.372h23.251
				c2.4,0,4.625-0.289,6.672-0.867c2.047-0.571,3.82-1.45,5.322-2.631c1.5-1.181,2.687-2.66,3.562-4.442
				c0.872-1.781,1.309-3.884,1.309-6.3c0-2.575-0.478-4.739-1.432-6.498c-0.956-1.756-2.211-3.184-3.766-4.278
				c-1.557-1.099-3.331-1.894-5.323-2.388c-1.993-0.494-4.026-0.741-6.099-0.741H1.894V57.372 M21.871,0.001H0.256
				C0.114,0.001,0,0.117,0,0.258v58.76c0,0.142,0.114,0.256,0.256,0.256h24.153c2.798,0,5.425-0.35,7.807-1.039
				c2.392-0.688,4.473-1.715,6.186-3.047c1.716-1.338,3.078-3.045,4.044-5.069c0.968-2.031,1.458-4.408,1.458-7.062
				c0-2.271-0.394-4.343-1.168-6.15c-0.774-1.807-1.827-3.357-3.128-4.611c-1.301-1.25-2.845-2.237-4.585-2.933
				c-1.666-0.665-4.038-1.307-5.286-1.432c-0.103-0.011-0.203-0.021-0.304-0.028c0.534-0.169,1.115-0.379,1.597-0.622
				c1.543-0.775,2.876-1.776,3.964-2.978c1.107-1.225,1.992-2.663,2.628-4.275c0.636-1.616,0.959-3.337,0.959-5.115
				c0-2.495-0.434-4.69-1.293-6.529c-0.86-1.837-2.068-3.404-3.589-4.656c-1.522-1.249-3.315-2.193-5.329-2.805
				C26.36,0.309,24.174,0.001,21.871,0.001L21.871,0.001z M2.149,2.162h19.722c2.039,0,3.97,0.259,5.741,0.771
				c1.762,0.51,3.316,1.298,4.619,2.341c1.298,1.039,2.334,2.366,3.08,3.942c0.744,1.577,1.121,3.492,1.121,5.69
				c0,2.035-0.403,3.851-1.198,5.396c-0.798,1.548-1.875,2.863-3.206,3.906c-1.333,1.046-2.888,1.833-4.622,2.343
				c-1.74,0.512-3.603,0.771-5.536,0.771H2.149V2.162L2.149,2.162z M2.149,29.482h23.243c2.041,0,4.073,0.247,6.037,0.733
				c1.951,0.484,3.713,1.274,5.237,2.35c1.515,1.066,2.756,2.479,3.688,4.189c0.929,1.709,1.401,3.855,1.401,6.377
				c0,2.363-0.432,4.445-1.284,6.184c-0.853,1.742-2.027,3.207-3.49,4.354c-1.471,1.156-3.231,2.024-5.233,2.586
				c-2.017,0.57-4.239,0.858-6.603,0.858H2.149V29.482L2.149,29.482z"/>
		</g>
	</g>
</g>
</svg>
