<?xml version="1.0" standalone="no"?>
<!DOCTYPE svg PUBLIC "-//W3C//DTD SVG 1.1//EN" "http://www.w3.org/Graphics/SVG/1.1/DTD/svg11.dtd" >
<svg xmlns="http://www.w3.org/2000/svg" xmlns:xlink="http://www.w3.org/1999/xlink" version="1.1">
<metadata></metadata>
<defs>
<font id="z_aristaregular" horiz-adv-x="1095" >
<font-face units-per-em="2048" ascent="1638" descent="-410" />
<missing-glyph horiz-adv-x="460" />
<glyph horiz-adv-x="0" />
<glyph horiz-adv-x="682" />
<glyph unicode=" "  horiz-adv-x="460" />
<glyph unicode="&#x09;" horiz-adv-x="460" />
<glyph unicode="&#xa0;" horiz-adv-x="460" />
<glyph unicode="!" horiz-adv-x="397" d="M59 137q0 57 41 98t101 41q53 0 94 -41t41 -98q0 -55 -41 -96t-94 -41q-59 0 -100.5 41t-41.5 96zM59 479v690q0 59 41.5 99.5t100.5 40.5q53 0 94 -40t41 -100v-690q0 -59 -41 -99t-94 -40q-59 0 -100.5 40t-41.5 99z" />
<glyph unicode="&#x22;" horiz-adv-x="706" d="M59 915v256q0 57 41.5 97.5t98.5 40.5q59 0 98 -40t39 -98v-256q0 -57 -39 -97t-98 -40q-57 0 -98.5 40t-41.5 97zM371 915v256q0 57 41 97.5t98 40.5q59 0 98 -40t39 -98v-256q0 -57 -39 -97t-98 -40q-57 0 -98 40t-41 97z" />
<glyph unicode="#" horiz-adv-x="1204" d="M33 481q0 57 40 98.5t99 41.5h88l25 77q-59 0 -99.5 40t-40.5 100q0 55 40 95t100 40h86l75 241q16 55 68.5 81t108.5 10q53 -16 78.5 -67.5t11.5 -104.5l-54 -160h84l74 241q20 55 70.5 82t103.5 9q57 -14 84 -65.5t10 -106.5l-51 -160q57 0 98.5 -40t41.5 -95 q0 -59 -41 -99.5t-99 -40.5h-88l-22 -77q57 0 97 -41t40 -99q0 -57 -40 -98t-97 -41h-88l-78 -244q-16 -55 -67.5 -81.5t-106.5 -8.5q-55 16 -82 66.5t-8 105.5l51 162h-82l-78 -244q-16 -55 -66.5 -81.5t-105.5 -8.5q-55 16 -82 66.5t-8 105.5l51 162h-2q-59 0 -99 41 t-40 98zM553 621h80l24 77h-84z" />
<glyph unicode="$" horiz-adv-x="993" d="M35 842q0 61 27.5 117.5t72.5 99.5t99.5 69.5t107.5 30.5h12v15q0 57 40 96t98 39q57 0 97 -39t40 -96v-15h137q78 0 120 -44t42 -93q0 -53 -40 -93t-93 -40h-166v-101h28q63 0 118.5 -26.5t96.5 -70.5t63.5 -101.5t22.5 -118.5q0 -68 -24.5 -127t-68.5 -102 t-104.5 -67.5t-131.5 -24.5v-15q0 -57 -40 -96t-97 -39t-97.5 39t-40.5 96v15h-155q-57 0 -95 38.5t-38 98.5q0 49 37.5 90t95.5 45h155v96h-22q-61 0 -115.5 25.5t-94.5 69.5t-63.5 102.5t-23.5 126.5zM303 842q0 -23 13.5 -38.5t37.5 -15.5v101q-25 0 -38 -14.5t-13 -32.5 zM629 422q53 0 53 49q0 47 -53 47v-96z" />
<glyph unicode="%" horiz-adv-x="813" d="M0 1174q0 57 39 97t98 40q57 0 98 -40t41 -97q0 -59 -40.5 -98.5t-98.5 -39.5q-59 0 -98 39.5t-39 98.5zM90 182l328 1032q16 55 66.5 82t105.5 9q55 -16 81.5 -67.5t10.5 -104.5l-328 -1035q-16 -53 -68.5 -79.5t-105.5 -10.5t-79.5 66.5t-10.5 107.5zM494 139 q0 57 39.5 98.5t97.5 41.5q59 0 99 -41.5t40 -98.5t-40 -98t-99 -41q-57 0 -97 41t-40 98z" />
<glyph unicode="&#x26;" horiz-adv-x="1345" d="M170 406.5q2 76.5 35 151.5t100 136q-49 49 -77.5 113.5t-28.5 140.5q0 74 28.5 139.5t76.5 114.5t113.5 77t139.5 28q117 0 202 -63.5t124 -158t24.5 -200t-96.5 -191.5q-12 -10 -24.5 -20t-22.5 -21l113 -100l106 119q35 41 87 43t91 -33q41 -35 43 -87t-33 -93 l-102 -117l193 -166q39 -35 42 -88t-32 -92q-35 -41 -89.5 -43t-90.5 33l-191 166l-80 -95q-53 -47 -119.5 -73.5t-144.5 -26.5q-90 0 -164 35t-124 92t-75.5 130t-23.5 149.5zM422 393q0 -55 39 -95t96 -40q55 0 94 39l58 63l-185 164q-45 -12 -73.5 -48t-28.5 -83z M455 948q0 -35 27.5 -68.5t74.5 -33.5q43 0 74 29.5t31 72.5t-31 74t-74 31t-72.5 -31t-29.5 -74z" />
<glyph unicode="'" horiz-adv-x="389" d="M55 920v256q0 57 41.5 97t98.5 40q59 0 98 -40t39 -97v-256q0 -57 -39 -97.5t-98 -40.5q-57 0 -98.5 40t-41.5 98z" />
<glyph unicode="(" horiz-adv-x="772" d="M45 225v584q0 100 41 190.5t109.5 160t159.5 110.5t194 41h26q59 0 99.5 -40t40.5 -97q0 -59 -40 -98.5t-100 -39.5q-51 0 -96 -28.5t-79.5 -72.5t-55 -98.5t-20.5 -103.5v-479q0 -49 20.5 -95t55 -82t79.5 -56.5t96 -20.5q59 0 99.5 -39t40.5 -98q0 -57 -40 -97 t-100 -40h-26q-102 0 -193.5 40.5t-160 109.5t-109.5 160t-41 189z" />
<glyph unicode=")" horiz-adv-x="772" d="M57 -137q0 59 40.5 98t99.5 39q51 0 96 20.5t80 56.5t55.5 82t20.5 95v479q0 49 -20.5 103.5t-55.5 98.5t-80 72.5t-96 28.5q-59 0 -99.5 39t-40.5 99q0 57 40 97t100 40h26q100 0 192.5 -41t161 -110.5t109.5 -160t41 -190.5v-584q0 -98 -41 -189t-109.5 -160 t-160.5 -109.5t-193 -40.5h-26q-59 0 -99.5 39.5t-40.5 97.5z" />
<glyph unicode="*" horiz-adv-x="552" d="M42 960.5q7 28.5 32 45.5l65 41l-65 40q-25 16 -32 45t9 56q16 25 45 31t54 -9l55 -34v63q0 31 20.5 51.5t50.5 20.5q29 0 50.5 -20.5t21.5 -51.5v-63l55 34q25 14 53.5 8t45.5 -30q16 -27 9 -55.5t-34 -45.5l-63 -40l63 -41q27 -16 34 -45t-9 -54q-16 -27 -45 -33 t-54 11l-55 33v-64q0 -29 -21.5 -50.5t-50.5 -21.5q-31 0 -51 21.5t-20 50.5v64l-55 -33q-25 -16 -53.5 -10t-45.5 32q-16 25 -9 53.5z" />
<glyph unicode="+" horiz-adv-x="854" d="M0 614q0 59 39 99.5t98 40.5h121v120q0 59 40 99.5t99 40.5q57 0 98.5 -40t41.5 -100v-120h118q59 0 100.5 -40t41.5 -100q0 -57 -41 -98t-101 -41h-118v-119q0 -59 -41 -100t-99 -41q-59 0 -99 41t-40 100v119h-121q-59 0 -98 41t-39 98z" />
<glyph unicode="," horiz-adv-x="389" d="M55 -115v256q0 55 40.5 96.5t97.5 41.5q59 0 100 -41t41 -97v-256q0 -57 -41 -97t-100 -40q-57 0 -97.5 40t-40.5 97z" />
<glyph unicode="-" horiz-adv-x="872" d="M0 616q0 59 39 99.5t98 40.5h522q57 0 97.5 -40.5t40.5 -99.5q0 -57 -40 -98t-98 -41h-522q-59 0 -98 41t-39 98z" />
<glyph unicode="." horiz-adv-x="333" d="M0 139q0 57 40 98.5t97 41.5q59 0 100.5 -41.5t41.5 -98.5t-41 -98t-101 -41q-57 0 -97 41t-40 98z" />
<glyph unicode="/" horiz-adv-x="698" d="M6 180l328 1032q16 55 68.5 82t105.5 9q53 -16 79.5 -67.5t10.5 -105.5l-328 -1034q-16 -53 -67 -79.5t-105 -10.5q-55 16 -81.5 66.5t-10.5 107.5z" />
<glyph unicode="0" horiz-adv-x="927" d="M51 412v485q0 86 32 161t88 131t131 88t161 32t160.5 -32t130 -88t88 -131t32.5 -161v-485q0 -86 -32.5 -161t-88 -130t-130 -88t-160.5 -33t-161 33t-131 88t-88 130t-32 161zM322 412q0 -59 40.5 -100.5t100.5 -41.5q59 0 99 41t40 101v485q0 59 -40 100t-99 41 t-100 -41t-41 -100v-485z" />
<glyph unicode="1" horiz-adv-x="940" d="M45 860q0 55 41 96l315 318q43 37 96.5 37t96.5 -37q25 -25 33 -55.5t8 -61.5v-885h139q57 0 97 -39.5t40 -97.5q0 -55 -40 -95t-97 -40h-553q-57 0 -96 40t-39 95q0 57 39 97t96 40h141v578l-83 -84q-39 -41 -95.5 -41t-97.5 41q-41 39 -41 94z" />
<glyph unicode="2" horiz-adv-x="933" d="M61 123q-12 53 23 104l504 725v33q0 51 -56 51h-309q-55 2 -93 44t-38 94q0 59 38 97t93 38h309q72 0 132.5 -24.5t103.5 -67.5t67.5 -102.5t24.5 -129.5q2 -39 -6 -85t-12 -54l-117 -170l-281 -404h306q55 0 94 -39.5t39 -97.5q0 -55 -39 -95t-94 -40h-555q-53 0 -91 35 t-43 88z" />
<glyph unicode="3" horiz-adv-x="923" d="M59 135q0 59 39 98t97 39h180h106q51 0 88 36t37 89t-37 89t-88 36h-106h-99q-57 0 -96 39t-39 94t39 95.5t96 40.5h99h106q51 0 88 36.5t37 90.5q0 51 -37 86.5t-88 35.5h-106h-180q-57 0 -96.5 40t-39.5 98q0 55 39 95t97 40h286q82 0 154 -31t125 -85t83.5 -125.5 t30.5 -153.5q0 -78 -25.5 -143.5t-70.5 -119.5q45 -51 70.5 -117.5t25.5 -140.5q0 -82 -30.5 -154.5t-83.5 -126t-125 -85t-154 -31.5h-286q-57 0 -96.5 40t-39.5 95z" />
<glyph unicode="4" horiz-adv-x="872" d="M37 494v2v673q0 59 40 98.5t97 39.5q59 0 100 -39t41 -99v-538h140q2 55 42 94t93 39q59 0 99 -39t42 -94q53 -4 91 -44t38 -93q0 -55 -38 -95.5t-91 -44.5v-219q0 -57 -41 -97t-100 -40q-55 0 -95 40t-40 97v219h-281q-57 0 -97 40t-40 100z" />
<glyph unicode="5" horiz-adv-x="993" d="M63 776v393q0 59 41 99.5t99 40.5h528q59 0 99 -40t40 -100q0 -57 -39.5 -97t-99.5 -40h-391v-117h149q90 -2 173 -36.5t146.5 -96t101.5 -144.5t38 -179t-35.5 -179t-98 -145.5t-146.5 -98.5t-179 -36q-55 0 -118.5 18.5t-120.5 51t-103.5 79t-64.5 103.5 q-12 33 -8 67.5t20.5 63.5t46 47.5t68.5 18.5q53 0 94 -41q25 -18 40 -41t33.5 -43.5t44 -34t68.5 -13.5q78 0 130.5 52.5t52.5 130.5q0 76 -52.5 128t-130.5 52h-286q-53 0 -96.5 40t-43.5 97z" />
<glyph unicode="6" horiz-adv-x="917" d="M51 412v491q6 72 36 142.5t78 128t114.5 94.5t146.5 41h221q55 0 95 -39t40 -96q0 -55 -40 -95.5t-95 -40.5h-182h-2q-59 0 -99 -40t-42 -95v-104q35 10 69.5 17t71.5 7q86 0 160.5 -32.5t130 -88t88 -130t32.5 -160.5t-32.5 -161t-88 -130t-130 -88t-160.5 -33 q-72 0 -136.5 23.5t-116.5 64.5t-90 97t-54 122q-6 25 -10.5 50.5t-4.5 54.5zM322 412q0 -59 40.5 -100.5t100.5 -41.5q59 0 100 41t41 101q0 59 -41 99t-100 40t-100 -40t-41 -99z" />
<glyph unicode="7" horiz-adv-x="923" d="M66.5 108q-11.5 54 19.5 101l446 827h-311q-57 0 -96 39t-39 96q0 55 39 95.5t96 40.5h531q43 -2 73.5 -23.5t45 -53.5t13.5 -72t-20 -77l-553 -1020q-29 -47 -84 -58t-102 20t-58.5 85z" />
<glyph unicode="8" horiz-adv-x="919" d="M47 410q0 84 31 157.5t84 126.5q-39 49 -61.5 109.5t-22.5 126.5q0 80 29.5 148.5t82 120.5t122 82t147.5 30q80 0 148.5 -30t120.5 -82t82 -120.5t30 -148.5q0 -66 -21.5 -126.5t-60.5 -109.5q53 -53 83.5 -126.5t30.5 -157.5q0 -86 -32.5 -161t-89 -130.5t-131 -88 t-160.5 -32.5t-161 32.5t-130 88t-88 130.5t-33 161zM317 410q0 -59 41.5 -100.5t100.5 -41.5t101 41t42 101q0 25 -10 49t-28.5 44.5t-45 34t-59.5 13.5q-53 0 -97.5 -41t-44.5 -100zM348 930q0 -14 6 -32.5t20.5 -35t35 -28t49.5 -11.5q45 0 77.5 28t32.5 79 q0 47 -31.5 79.5t-78.5 32.5q-45 0 -78 -32.5t-33 -79.5z" />
<glyph unicode="9" horiz-adv-x="917" d="M43 897q0 86 33 161t88 130t130 88t161 33q72 0 136 -23.5t116.5 -64.5t90.5 -97.5t54 -122.5q6 -25 10 -50t4 -54v-491q-6 -72 -35.5 -142.5t-77.5 -128t-115 -94.5t-146 -41h-222q-55 0 -95 39t-40 96q0 55 40 95t95 40h183h2q59 0 99 40t42 96v104 q-35 -10 -69.5 -17.5t-71.5 -7.5q-86 0 -161 33t-130 88.5t-88 130t-33 160.5zM313 897q0 -59 41.5 -99t100.5 -40t100 40t41 99t-41 100t-100 41t-100.5 -41t-41.5 -100z" />
<glyph unicode=":" horiz-adv-x="376" d="M49 139q0 57 40 98.5t97 41.5q59 0 100.5 -41.5t41.5 -98.5t-41 -98t-101 -41q-57 0 -97 41t-40 98zM49 854q0 57 40 98t97 41q59 0 100.5 -41t41.5 -98t-41 -98t-101 -41q-57 0 -97 41t-40 98z" />
<glyph unicode=";" horiz-adv-x="389" d="M55 -115q0 -57 40 -97t98 -40q59 0 100 40t41 97v256q0 55 -41 96.5t-100 41.5q-57 0 -97.5 -41t-40.5 -97v-256zM55 854q0 57 40 98t98 41q59 0 100 -41t41 -98t-41 -98t-100 -41q-57 0 -97.5 41t-40.5 98z" />
<glyph unicode="&#x3c;" horiz-adv-x="761" d="M-1 614.5q1 36.5 17 69.5t45 47l447 238q49 27 102.5 10.5t79.5 -66.5q27 -49 9.5 -102t-66.5 -80l-221 -119l221 -116q49 -27 66.5 -80.5t-9.5 -102.5t-80 -65.5t-102 10.5l-447 236q-33 16 -48 50t-14 70.5z" />
<glyph unicode="=" horiz-adv-x="888" d="M57 545q0 55 39 95t97 40h505q55 0 94 -40t39 -95t-38.5 -95t-94.5 -40h-505q-57 0 -96.5 39.5t-39.5 95.5zM57 899q0 55 39 95t97 40h505q55 0 94 -40t39 -95t-38.5 -95t-94.5 -40h-505q-57 0 -96.5 40t-39.5 95z" />
<glyph unicode="&#x3e;" horiz-adv-x="761" d="M5 415.5q18 53.5 67 80.5l221 116l-221 119q-49 27 -66.5 80t8.5 102q27 49 80 65.5t103 -9.5l446 -238q29 -14 45.5 -47t17.5 -69.5t-14.5 -70.5t-48.5 -50l-446 -236q-49 -27 -102.5 -10.5t-80.5 65.5t-9 102.5z" />
<glyph unicode="?" horiz-adv-x="888" d="M35 879q0 82 29.5 159.5t84 138t131.5 96.5t171 36q86 0 160.5 -33t132 -88t90 -131t32.5 -162q0 -72 -21.5 -134.5t-60.5 -115.5q-53 -72 -134 -118t-177 -50v-2q0 -55 -40 -96t-99 -41q-57 0 -96 41t-39 96v139v15q0 53 41 88t94 39h135q51 6 86 46t35 93q0 59 -41 100 t-98 41q-59 0 -100.5 -41t-41.5 -100q0 -57 -41 -97t-98 -40q-53 0 -92 33.5t-43 87.5zM199 137q0 55 38.5 95t94.5 40q57 0 97 -40t40 -95q0 -57 -40 -97t-97 -40q-55 0 -94 40t-39 97z" />
<glyph unicode="@" horiz-adv-x="1482" d="M43 604q0 145 55.5 273.5t150.5 223.5t223 150.5t273 55.5t272.5 -55.5t222.5 -150.5t150.5 -223t55.5 -274q0 -41 -3 -84t-18 -84q-29 -86 -104.5 -141t-173.5 -59q-106 0 -189 69q-94 -70 -213 -69q-74 0 -140 28.5t-116.5 78.5t-81 116.5t-30.5 144.5q0 76 28.5 143.5 t79 117.5t118 79t142.5 29q96 0 176 -45t130 -119q29 -45 45 -96t16 -109q0 -18 -3 -35.5t-3 -33.5q0 -39 39 -39q12 0 22.5 9t14.5 21q6 37 6 78q0 123 -60 219q-57 100 -158.5 162t-224.5 62q-92 0 -171.5 -35t-140 -95.5t-95.5 -140.5t-35 -172t35 -172t95.5 -140.5 t140 -95t171.5 -34.5q72 0 132 20q27 10 53 11q53 0 91 -38t38 -92q0 -41 -24.5 -74.5t-65.5 -49.5q-109 -37 -224 -37q-145 0 -273 55t-223 150.5t-150.5 223.5t-55.5 273zM637 604q0 -45 30.5 -76.5t77.5 -31.5q45 0 77 31.5t32 76.5t-32 77t-77 32q-47 0 -77.5 -32 t-30.5 -77z" />
<glyph unicode="A" horiz-adv-x="935" d="M57 137v318v278v164v2v4q0 84 33 158t88 129t130 87t159 32t158.5 -32t130 -87t88.5 -129t33 -158l2 -4v-2v-164v-278v-318q0 -57 -40 -97t-98 -40q-59 0 -99 40t-40 97v240h-268v-240q0 -57 -41 -97t-100 -40q-57 0 -96.5 40t-39.5 97zM334 653h268v244q0 55 -40 95 t-95 40t-94 -40t-39 -95v-244z" />
<glyph unicode="B" horiz-adv-x="923" d="M59 137v793v4q0 78 30 146.5t81 118.5t119.5 80t146.5 30t147.5 -30t121 -81t81 -120.5t29.5 -151.5q0 -119 -65 -213q59 -53 95 -132t36 -169q0 -86 -33 -161t-88 -130t-130 -88t-161 -33h-272h-27q-47 12 -79 50t-32 87zM336 827h100q43 0 73 30t30 73q0 41 -30 71.5 t-73 30.5t-71.5 -30.5t-28.5 -71.5v-103zM338 279h133q57 0 96 38.5t39 94.5q0 55 -39 94t-96 39h-133v-133v-133z" />
<glyph unicode="C" horiz-adv-x="980" d="M49 465v377q0 92 36 176t99.5 148.5t147.5 102.5t180 38q123 0 231.5 -62.5t171.5 -173.5q8 -14 15.5 -34.5t7.5 -39.5q0 -57 -41 -98t-98 -41q-45 0 -74 23.5t-51 58.5q-25 41 -67 65.5t-95 24.5q-39 0 -72.5 -14.5t-59.5 -40t-41 -60t-15 -73.5v-377q0 -39 15 -74 t41 -60.5t59.5 -40t72.5 -14.5q53 0 94 25t68 66q23 35 47.5 57t79.5 22t96 -39.5t41 -99.5q0 -20 -7 -38.5t-18 -39.5q-59 -104 -167.5 -166.5t-233.5 -62.5q-90 0 -174 36t-148.5 98.5t-102.5 147.5t-38 183z" />
<glyph unicode="D" horiz-adv-x="997" d="M63 139v1030q0 53 40 96.5t100 43.5h278q90 0 175 -36t149.5 -99.5t103.5 -147.5t39 -182v-379q0 -92 -38 -176t-101.5 -148.5t-148.5 -102.5t-179 -38h-278q-55 0 -97.5 40t-42.5 99zM340 279h141q39 0 74 14t60.5 39.5t40 59.5t14.5 73v379q0 39 -14.5 72.5t-40 59 t-60.5 40t-74 14.5h-141v-751z" />
<glyph unicode="E" horiz-adv-x="942" d="M63 139v1030q0 53 39 96.5t99 43.5h544q57 0 97.5 -41t40.5 -99q0 -59 -40 -98t-98 -39h-409v-198h272q55 0 96 -41t41 -99q0 -57 -40.5 -97t-96.5 -40h-272v-281h409q57 0 97.5 -40.5t40.5 -96.5q0 -59 -40 -99t-98 -40h-544q-53 0 -95.5 40t-42.5 99z" />
<glyph unicode="F" horiz-adv-x="897" d="M63 139v1030q0 53 40 96.5t100 43.5h545q57 0 97 -41t40 -99q0 -59 -40 -98t-97 -39h-406v-278h268q59 0 98.5 -41t39.5 -99q0 -57 -39 -97t-99 -40h-268v-338q0 -59 -40 -99t-99 -40t-99.5 40t-40.5 99z" />
<glyph unicode="G" horiz-adv-x="1024" d="M49 467v377q2 92 39 177t99.5 148.5t147.5 101.5t181 38q123 0 232.5 -64.5t175.5 -175.5q0 -4 2 -6q16 -33 16 -66q0 -57 -41 -97t-98 -40q-39 0 -71 19.5t-48 52.5q-29 45 -72 72.5t-96 27.5q-39 0 -73.5 -14t-60.5 -40t-40 -60.5t-14 -73.5v-377q0 -41 14 -75 t40 -60.5t60.5 -41t73.5 -14.5t73 14.5t60.5 41t42 60.5t15.5 75q-59 0 -99.5 40t-40.5 99q0 55 40 94t100 39h135q59 0 98 -38.5t39 -94.5v-139q0 -135 -67.5 -244.5t-178.5 -169.5q-47 -25 -102.5 -39t-114.5 -14t-113.5 14.5t-105.5 38.5q-111 59 -179.5 169t-68.5 245z " />
<glyph unicode="H" horiz-adv-x="1036" d="M63 137v1032q0 63 44.5 100.5t93.5 37.5q59 0 99 -41t40 -97v-376h356v376q0 55 41 96.5t94 41.5t97.5 -39t44.5 -99v-1032q0 -27 -11.5 -51.5t-32 -43.5t-46 -30.5t-52.5 -11.5q-53 0 -94 40t-41 97v377h-356v-377q0 -57 -40 -97t-99 -40q-55 0 -95 39t-43 98z" />
<glyph unicode="I" horiz-adv-x="401" d="M61 137v1032q0 55 40.5 96.5t99.5 41.5q55 0 95 -41t40 -97v-1032q0 -57 -40 -97t-95 -40q-59 0 -99.5 40t-40.5 97z" />
<glyph unicode="J" horiz-adv-x="669" d="M14 137q0 57 40 98t96 41q39 0 74.5 14.5t61 40t41 60.5t15.5 74v704q0 55 39 96.5t94 41.5q59 0 100 -41t41 -97v-704q-2 -98 -37.5 -181t-98 -145.5t-147.5 -99.5t-183 -39q-55 0 -95.5 39t-40.5 98z" />
<glyph unicode="K" horiz-adv-x="1054" d="M61 137v1032q0 55 41 96.5t99 41.5q59 0 99 -41t40 -97v-321l416 418q43 41 99 41t97 -41t41 -97.5t-41 -97.5l-417 -418l417 -420q41 -41 41 -97t-41 -99q-41 -39 -97 -39t-99 39l-416 422v-322q0 -57 -40 -97t-99 -40q-57 0 -98.5 40t-41.5 97z" />
<glyph unicode="L" horiz-adv-x="864" d="M63 150v1030q0 57 41 97t101 40q53 0 95 -40t42 -97v-893h377q55 0 95 -40t40 -97q0 -59 -40 -99.5t-95 -40.5h-514q-59 0 -98 40t-44 100z" />
<glyph unicode="M" horiz-adv-x="1499" d="M59 139v754q0 80 32 155.5t88.5 133t132 92.5t161.5 35q78 0 146.5 -29t130.5 -78q59 47 127.5 77t148.5 30q84 0 157.5 -33t129 -90.5t89.5 -132t38 -160.5v-754q0 -59 -41 -99t-96 -40q-59 0 -99.5 40t-40.5 99v738q0 59 -40 99t-97 40t-98 -40t-41 -99v-738 q0 -59 -40 -99t-97 -40t-97.5 40t-40.5 99v738q0 59 -40 99t-99 40q-57 0 -97 -40t-40 -99v-738q0 -59 -40 -99t-99 -40q-57 0 -97.5 40t-40.5 99z" />
<glyph unicode="N" horiz-adv-x="1042" d="M55 139v705q2 94 38 178t99.5 146.5t147.5 99.5t180 41q94 0 176 -36t145.5 -99.5t101.5 -147.5t42 -182v-705q0 -59 -40 -99t-97 -40q-59 0 -99 40t-40 99v705q0 39 -15.5 73.5t-41 60.5t-59.5 40t-73 14t-73.5 -14t-60.5 -40t-41 -60.5t-15 -73.5v-705q0 -59 -40 -99 t-95 -40q-59 0 -99.5 40t-40.5 99z" />
<glyph unicode="O" horiz-adv-x="1028" d="M49 467v377q2 92 39 177t99.5 148.5t147.5 101.5t181 38q94 0 176 -36t144.5 -99.5t100.5 -147.5t42 -182v-377q-4 -92 -40 -177t-97.5 -149.5t-144.5 -102.5t-181 -38q-94 0 -177 36t-146.5 99.5t-101.5 148.5t-42 183zM326 467q0 -80 55 -135.5t135 -55.5q39 0 73 14.5 t59.5 41t41 60.5t15.5 75v377q0 39 -15.5 73.5t-41 60.5t-59.5 40t-73 14q-41 0 -74.5 -14t-60.5 -40t-41 -60.5t-14 -73.5v-377z" />
<glyph unicode="P" horiz-adv-x="1001" d="M55 139v705q2 90 39 174t100.5 148.5t146.5 103.5t179 39q90 0 174 -37t148.5 -99.5t102.5 -147.5t38 -181t-36 -181t-97.5 -148.5t-146.5 -100.5t-183 -37q-47 0 -95 15.5t-93 49.5v-303q0 -59 -41 -99t-98 -40t-97.5 40t-40.5 99zM332 844q0 -41 14 -76t40 -60.5 t60.5 -40t73.5 -14.5q78 0 133.5 54.5t55.5 136.5q0 39 -15.5 73.5t-41 60.5t-59.5 40t-73 14t-73.5 -14t-60.5 -40t-40 -60.5t-14 -73.5z" />
<glyph unicode="Q" horiz-adv-x="1034" d="M49 467v377q2 92 38 177t99.5 148.5t147.5 101.5t180 38q94 0 177 -36t145.5 -99.5t101.5 -147.5t43 -182v-377q0 -66 -17.5 -123t-45.5 -108q41 -41 41 -97q0 -58 -41 -102q-41 -37 -97.5 -37t-97.5 37l-6 8q-96 -45 -203 -45q-59 0 -114.5 14.5t-102.5 38.5 q-111 59 -179.5 169t-68.5 245zM326 467q0 -72 47 -125t116 -63q-23 35 -23 75v14q5 48 40 85q41 39 98 40h3q56 0 93 -40q0 4 1 7t1 7v377q0 39 -14 73.5t-39.5 60.5t-60.5 40t-74 14t-73.5 -14t-60.5 -40t-40 -60.5t-14 -73.5v-377z" />
<glyph unicode="R" horiz-adv-x="1026" d="M55 139v705q2 92 38 177t99.5 148.5t147.5 101.5t182 38q90 0 174 -37t147.5 -99.5t101.5 -147.5t38 -181q0 -147 -80 -263t-213 -173l172 -172q20 -20 29.5 -46t9.5 -52.5t-9 -52.5t-30 -46q-41 -39 -97 -39t-97 39l-336 336v-236q0 -59 -41 -99t-98 -40q-55 0 -96.5 40 t-41.5 99zM332 844q0 -37 15 -72t41 -61.5t60.5 -42t73.5 -15.5q76 0 132.5 54.5t56.5 136.5q0 39 -15.5 73.5t-41 60.5t-60.5 40t-72 14q-41 0 -74.5 -14t-60.5 -40t-41 -60.5t-14 -73.5z" />
<glyph unicode="S" horiz-adv-x="1026" d="M49 911q0 76 31 147.5t85 127t125.5 89.5t153.5 34h365q55 0 94 -40t43 -100q0 -59 -39 -98t-98 -39h-365q-49 0 -82.5 -35.5t-35.5 -89.5q2 -47 35.5 -80.5t82.5 -33.5h140q76 0 146.5 -31t125.5 -85t88 -127t33 -155q0 -80 -31 -151.5t-84 -124.5t-124.5 -85 t-153.5 -34h-365q-61 0 -100 40t-39 99q0 55 40 96t99 41h365q47 0 84 35t37 84q0 51 -36 85t-83 36h-142q-78 2 -149.5 33t-125.5 83t-87 123.5t-33 155.5z" />
<glyph unicode="T" horiz-adv-x="983" d="M27 1169q0 57 39.5 98.5t97.5 41.5h653q59 0 99 -41t40 -99q0 -59 -39.5 -98t-99.5 -39h-188v-893q0 -59 -39 -99t-98 -40t-98.5 40t-39.5 99v893h-190q-57 0 -97 39t-40 98z" />
<glyph unicode="U" horiz-adv-x="1042" d="M55 467v702q0 57 40 98.5t100 41.5q57 0 96 -41t39 -99v-702q0 -41 15 -75t41 -60.5t59.5 -41t72.5 -14.5t74 14.5t60.5 41t41 60.5t15.5 75v702q0 57 39.5 98.5t99.5 41.5q57 0 97 -41t40 -99v-702q-2 -94 -38 -178t-98.5 -148.5t-147.5 -102.5t-183 -38q-94 0 -177 36 t-144.5 99.5t-99.5 148.5t-42 183z" />
<glyph unicode="V" horiz-adv-x="1167" d="M53 1120q-9 24 -9 49q0 29 12 57q24 52 77 74q25 9 49 9q28 0 56 -12q52 -23 73 -78l273 -701l272 701q20 55 72 79q28 12 56 12q25 0 50 -10q53 -22 76 -74q12 -27 12 -55q0 -25 -10 -51l-399 -1030q-16 -41 -52 -65.5t-77 -24.5q-39 0 -76 26.5t-53 63.5z" />
<glyph unicode="W" horiz-adv-x="1499" d="M59 416v753q0 57 39 98.5t97 41.5q59 0 98 -41t39 -99v-739q0 -57 42 -97t97 -40t97 40t42 97v739q0 57 40 98.5t100 41.5q57 0 97 -41t40 -99v-739q0 -57 40 -97t95 -40q59 0 99 40t40 97v739q0 57 41 98.5t98 41.5q55 0 97.5 -41t42.5 -99v-753q-2 -84 -35 -159 t-89 -132t-132 -91t-162 -34q-74 0 -145.5 26.5t-126.5 79.5q-59 -49 -128 -76.5t-151 -29.5q-86 0 -158.5 31.5t-127 88t-87 132.5t-39.5 164z" />
<glyph unicode="X" horiz-adv-x="1124" d="M66.5 114.5q-5.5 26.5 1 53.5t22.5 51l301 434l-301 437q-26 35 -26 76q0 13 2 27q12 56 59 91q36 25 77 25q12 -1 26 -3q56 -10 89 -57l246 -350l242 350q35 47 91 57q14 3 27 3q41 0 76 -25q47 -35 59 -91q3 -14 2 -27q0 -40 -26 -76l-301 -437l301 -434q25 -36 25 -78 q0 -13 -2 -27q-10 -58 -58 -89q-36 -27 -77 -27q-13 0 -26 3q-56 11 -91 58l-242 351l-246 -351q-33 -47 -89 -58q-13 -3 -26 -3q-41 0 -77 27q-25 16 -39 39.5t-19.5 50z" />
<glyph unicode="Y" horiz-adv-x="1067" d="M42 1188q9 55 56 90q36 25 77 25q13 0 27 -3q56 -10 87 -59l243 -346l240 346q33 49 90 59q13 3 26 3q41 0 75 -25q49 -35 60 -90q3 -13 3 -26q0 -41 -27 -79l-329 -471v-473q0 -59 -41 -99t-97 -40q-57 0 -98 40t-41 99v473l-330 471q-24 38 -24 79q0 12 3 26z" />
<glyph unicode="Z" horiz-adv-x="1097" d="M80 1169q0 57 41 98.5t96 41.5h655q39 -2 71 -22.5t49.5 -52.5t17.5 -70t-23 -74l-512 -814h402q59 0 98 -40.5t39 -96.5q0 -59 -39 -99t-98 -40h-656q-41 2 -71.5 21.5t-47 50t-16.5 67.5t20 74l3 2l514 817h-406q-55 0 -96 39t-41 98z" />
<glyph unicode="[" horiz-adv-x="622" d="M63 -147v1331q8 51 44 88t94 39h229q57 0 97 -40t40 -97q0 -59 -40 -98.5t-97 -39.5h-92v-1036h92q57 0 97 -39t40 -98q0 -57 -40 -97t-97 -40h-229q-57 0 -93 37.5t-45 89.5z" />
<glyph unicode="\" horiz-adv-x="698" d="M6 1130q-16 53 10.5 105t79.5 68q53 18 105.5 -8.5t68.5 -82.5l328 -1032q16 -57 -10.5 -107t-81.5 -67q-53 -16 -104.5 10.5t-67.5 79.5z" />
<glyph unicode="]" horiz-adv-x="622" d="M55 -137q0 59 40.5 98t97.5 39h92v1036h-92q-57 0 -97.5 39t-40.5 99q0 57 40 97t98 40h229q57 -2 93 -39t44 -88v-1331q-8 -51 -44 -89t-93 -38h-229q-57 0 -97.5 39.5t-40.5 97.5z" />
<glyph unicode="_" horiz-adv-x="1075" d="M57 141q0 59 39 99.5t99 40.5h686q57 0 97 -40.5t40 -99.5q0 -57 -40 -98t-97 -41h-686q-59 0 -98.5 41t-39.5 98z" />
<glyph unicode="`" horiz-adv-x="501" d="M-2 1210q6 33 26.5 57.5t50 35t61.5 6.5t61 -25l227 -164q29 -18 22 -49q-2 -23 -18 -34t-39 -7l-289 41q-49 8 -78.5 48t-23.5 91z" />
<glyph unicode="a" horiz-adv-x="1089" d="M43 496q0 53 11.5 102t31.5 96q59 133 180 215t275 82h29.5t27.5 -2q92 -10 173 -53t139.5 -109.5t92 -151.5t33.5 -179v-363q0 -55 -41 -94t-92 -39q-72 0 -115 66q-10 -4 -18 -9.5t-16 -9.5q-49 -23 -101 -35q-53 -12 -112 -12q-154 0 -275 83t-180 214 q-20 47 -31.5 96t-11.5 103zM311 496q0 -47 19.5 -89t51.5 -73t73 -49.5t84 -18.5q47 0 89 17.5t72.5 48t49 72.5t18.5 92q0 45 -18.5 87t-50 73.5t-73.5 50t-87 18.5t-86 -18.5t-73 -50t-50.5 -73.5t-18.5 -87z" />
<glyph unicode="b" horiz-adv-x="1069" d="M55 496v686q0 25 12.5 48t31 40.5t41.5 28t48 8.5q27 2 51.5 -9.5t44 -30t30 -44t10.5 -52.5v-235q72 37 148 48q38 6 76 6q38 -1 76 -6q76 -11 148 -45t133 -91q72 -74 108 -159t36 -193q0 -102 -40 -192.5t-107.5 -158t-158 -106.5t-190.5 -39q-98 0 -188.5 40 t-159 107.5t-109.5 157.5t-41 191zM324 496q0 -47 18 -89t50 -73t73 -49.5t88 -18.5q45 0 87 18.5t73.5 49.5t50 73t18.5 89t-18.5 89t-50 72.5t-73.5 49t-87 18.5q-47 0 -88 -19.5t-73 -51t-50 -73.5t-18 -85z" />
<glyph unicode="c" horiz-adv-x="966" d="M41 496q0 98 40 188t108.5 157.5t159 108.5t190.5 41q205 0 348 -143q32 -35 32 -83q-1 -5 -1 -9q-4 -54 -39 -88q-37 -35 -95 -37h-5q-54 0 -89 37q-63 57 -151 57q-47 0 -89 -19.5t-74 -51t-50.5 -72.5t-18.5 -86q0 -47 18.5 -89t51.5 -74q33 -33 74 -51q37 -17 79 -16 h9q90 0 151 56q37 41 93 41l1 -1q58 0 95 -40q18 -16 28.5 -39t11.5 -47.5t-7.5 -48t-24.5 -42.5q-72 -72 -158 -108.5t-190 -36.5q-102 0 -192.5 40t-158 107.5t-107.5 157.5t-40 191z" />
<glyph unicode="d" horiz-adv-x="1069" d="M20 496q0 100 40 190t109 157.5t159 107.5t190 40q123 0 227 -55v235q0 27 11.5 51.5t30 43t43 29t51.5 10.5q53 0 93 -38t40 -98v-673q0 -100 -40 -190.5t-108.5 -158t-159 -107.5t-188.5 -40t-188 39t-159 106.5t-110 157.5t-41 193zM287 496q0 -47 18.5 -89t50 -73 t73.5 -49.5t89 -18.5q45 0 86 18.5t73 50.5t50 73t18 88q0 49 -18 91t-50 72.5t-73 48t-86 17.5q-47 0 -89 -18.5t-73.5 -50t-50 -73.5t-18.5 -87z" />
<glyph unicode="e" horiz-adv-x="1071" d="M43 496q0 96 40 186t107.5 158.5t158 109.5t190.5 41q98 0 188 -41t158.5 -109.5t109.5 -157.5t41 -187q0 -52 -40 -94q-38 -40 -94 -40h-5h-545q68 -96 187 -96q33 0 55 6.5t39.5 14.5t35 14t40.5 6q43 -2 75 -25q30 -22 46 -56q12 -25 12 -53q0 -9 -1 -19 q-5 -39 -36 -72q-55 -45 -123 -62.5t-143 -19.5h-18q-89 0 -171 36q-90 40 -158.5 108.5t-108.5 160.5t-40 191zM352 631h373q-35 43 -82 68.5t-104 25.5q-59 0 -105.5 -25.5t-81.5 -68.5z" />
<glyph unicode="f" horiz-adv-x="757" d="M20 -156q0 53 38 91t92 40q41 0 68.5 30t27.5 67v305q-55 0 -88 37t-37 96q0 53 34.5 91t90.5 44v305q0 70 26.5 134.5t73.5 114.5t110.5 80t135.5 30q59 0 100 -33t45 -98q0 -53 -37.5 -90t-95.5 -41q-43 -2 -67.5 -31t-24.5 -68v-303q53 -4 89 -42t36 -93t-35 -92 t-90 -41v-309q0 -59 -19.5 -114.5t-54.5 -99.5t-83 -79t-109 -54q-34 -11 -70 -11h-6q-39 1 -70.5 16.5t-54 44t-25.5 73.5z" />
<glyph unicode="g" horiz-adv-x="1091" d="M51 -182q0 53 38 93t93 42h498q41 0 67.5 27.5t30.5 68.5v2q-41 -23 -93 -37t-138 -14q-109 0 -200 37t-156.5 102.5t-102.5 156.5t-37 200q0 100 41 190t109.5 157.5t158 107.5t187.5 40q102 0 192 -39t158 -106.5t105.5 -157.5t37.5 -192q0 -139 -59 -246 q59 -80 59 -203q0 -72 -26.5 -136.5t-72.5 -113.5t-109.5 -78.5t-137.5 -33.5h-520q-51 0 -87 39.5t-36 93.5zM317 496q0 -45 17.5 -87t48.5 -74t73 -51.5t91 -19.5t92 18.5t73.5 51.5t48 74t17.5 88t-19.5 89t-51 72.5t-73.5 49t-87 18.5t-86 -19.5t-73 -51t-51.5 -72.5 t-19.5 -86z" />
<glyph unicode="h" horiz-adv-x="1083" d="M63 123v1053q4 51 40.5 87.5t93.5 36.5q53 0 91 -36.5t42 -96.5v-235q47 31 110.5 43t120.5 12q100 0 190.5 -37t158 -102.5t107.5 -153.5t40 -188v-375q0 -55 -38 -94t-95 -41q-53 0 -90 36t-46 91v369q0 45 -17 87t-48 73.5t-72 50t-90 18.5q-92 0 -156.5 -63.5 t-74.5 -155.5v-371q0 -55 -38 -94t-95 -41q-51 0 -87 36t-47 91z" />
<glyph unicode="i" horiz-adv-x="385" d="M59 119v741q4 53 43.5 88t92.5 37q53 0 88.5 -39t40.5 -94v-725q0 -55 -35 -92t-94 -41q-53 0 -90 32.5t-46 92.5zM59 1171q2 53 42.5 90t93.5 37t91 -39.5t38 -93.5q0 -53 -38 -93t-91 -40q-59 2 -97.5 38t-38.5 101z" />
<glyph unicode="j" horiz-adv-x="694" d="M12 131q0 55 39 93t96 40q47 0 88 17.5t72 48t49.5 72.5t18.5 92v372q4 53 40 88t95 35q55 0 92 -35.5t41 -95.5v-379q-2 -98 -42 -185t-106.5 -151.5t-155.5 -103.5t-189 -41q-57 0 -95.5 39t-42.5 94zM375 1163q0 66 39 102t96 40q55 0 94 -38t39 -98q2 -25 -9 -49 t-29.5 -42.5t-43 -30t-51.5 -11.5q-53 0 -90 36t-45 91z" />
<glyph unicode="k" horiz-adv-x="915" d="M61 137v1034q0 53 41 95.5t99 42.5q57 0 97 -40t40 -98v-514l309 310q40 40 94 40h3q56 -1 98 -40q41 -41 41 -97.5t-41 -97.5l-271 -270l271 -269q41 -41 41 -97t-41 -97q-40 -37 -96 -40h-8q-51 0 -91 40l-309 307v-209q0 -53 -41 -95t-96 -42q-53 0 -96.5 40t-43.5 97 z" />
<glyph unicode="l" horiz-adv-x="573" d="M55 358v818q6 51 43 88t92 39q55 0 93.5 -39t42.5 -97v-809q0 -41 26.5 -69.5t67.5 -28.5q53 0 93 -37t42 -92q0 -49 -34 -87t-87 -46h-28q-72 0 -135.5 29.5t-111.5 79t-76 115t-28 136.5z" />
<glyph unicode="m" horiz-adv-x="1306" d="M61 133v504q0 72 29 136.5t78 112.5t115.5 76.5t142.5 28.5q61 0 119.5 -19.5t107.5 -60.5q98 80 230 80q72 0 138 -27.5t116.5 -74.5t80 -112.5t29.5 -139.5v-514q0 -49 -41 -86t-94 -37t-93 40t-40 93v498q0 39 -27.5 65.5t-68.5 26.5q-35 0 -65 -23.5t-30 -68.5v-498 q0 -55 -39.5 -94t-95.5 -39q-51 0 -92 36t-41 87v508q-2 41 -30.5 66.5t-63.5 25.5q-39 0 -66.5 -26.5t-29.5 -67.5v-508q-4 -49 -42 -85t-91 -36q-29 0 -53.5 10t-43 28.5t-30 43t-9.5 51.5z" />
<glyph unicode="n" horiz-adv-x="1099" d="M53 133v369q2 102 40 192t104.5 158t157 106.5t196.5 38.5q98 0 188 -35.5t158 -100t109 -152.5t41 -191v-379q0 -53 -38 -92t-94 -41q-55 0 -95 36t-40 91v369q0 47 -17.5 89t-49 72.5t-73.5 49t-91 18.5q-45 0 -86 -17.5t-72 -46t-49 -69.5t-18 -86v-373q0 -53 -41 -93 t-95 -40q-53 0 -94 37t-41 90z" />
<glyph unicode="o" horiz-adv-x="1077" d="M43 475q0 102 38 191.5t104.5 156t158 106.5t195.5 44q100 0 190 -39t157.5 -106.5t107.5 -157.5t40 -195q0 -102 -39 -191t-105.5 -157t-156.5 -106.5t-194 -38.5q-102 0 -192.5 36.5t-158 103t-106.5 157t-39 196.5zM309 475q0 -47 18.5 -89t50.5 -73.5t73 -50 t88 -18.5t89 18.5t72.5 50t49 73.5t18.5 89q-4 94 -67.5 160t-161.5 70q-47 0 -88 -17.5t-73 -48.5t-50.5 -73t-18.5 -91z" />
<glyph unicode="p" horiz-adv-x="1069" d="M55 -193v687q0 100 40 190t107.5 157.5t158 107.5t192.5 40q100 0 190.5 -39t158 -106.5t107.5 -157.5t40 -192t-38 -192.5t-104.5 -158t-158 -106.5t-195.5 -39q-127 0 -229 51v-235q0 -53 -39 -92t-97 -39q-51 0 -91 35.5t-42 88.5zM324 494q0 -51 18 -93.5t50 -73 t74 -48t87 -17.5q49 0 90 18.5t71.5 50t48 73.5t17.5 90q0 47 -18.5 89t-49 72.5t-71.5 48t-88 17.5q-49 0 -91 -18.5t-73 -49t-48 -71.5t-17 -88z" />
<glyph unicode="q" horiz-adv-x="1069" d="M20 494q0 102 39 192t106.5 157.5t158 106.5t192.5 39q100 0 191.5 -40t159 -107.5t107.5 -157.5t40 -190v-687q-2 -53 -42 -88.5t-91 -35.5q-57 0 -96.5 38.5t-39.5 92.5v235q-102 -51 -229 -51q-104 0 -195.5 39t-158 106.5t-104.5 157.5t-38 193zM289 494 q0 -47 17.5 -89.5t48 -74t71.5 -50t90 -18.5q45 0 87 17.5t74 48t50 73t18 93.5q0 47 -17 88t-48 71.5t-73 49t-91 18.5q-47 0 -88 -17.5t-71.5 -48t-49 -72.5t-18.5 -89z" />
<glyph unicode="r" horiz-adv-x="690" d="M47 129v379q2 98 42 185t106.5 151.5t155.5 102.5t190 42q57 0 95 -39t42 -94q0 -55 -39 -93t-96 -40q-47 0 -88 -17.5t-72 -48t-49.5 -72.5t-18.5 -91v-373q-4 -53 -40 -88t-95 -35q-55 0 -92 36t-41 95z" />
<glyph unicode="s" horiz-adv-x="944" d="M49 682q0 61 23.5 117.5t64.5 99.5t96.5 68.5t120.5 27.5h365q55 0 92 -42t37 -89q0 -53 -40 -93t-89 -40h-352q-25 0 -38.5 -14.5t-13.5 -34.5t13.5 -35.5t38.5 -15.5h231q63 0 117.5 -25.5t94.5 -69.5t62.5 -100.5t22.5 -118.5q0 -70 -24.5 -128t-67.5 -100 t-102.5 -65.5t-131.5 -23.5h-346q-53 0 -90 37t-37 94q0 51 37 93t90 44h346q55 0 56 49q0 47 -56 48h-225q-61 0 -115.5 25.5t-94.5 68.5t-62.5 100t-22.5 123z" />
<glyph unicode="t" horiz-adv-x="980" d="M55 506v674q0 55 42.5 92t97.5 37q57 0 96 -40t43 -100v-155h393q59 0 96 -41t37 -96q0 -53 -41 -95.5t-92 -42.5h-393v-233q0 -47 17.5 -89t48 -75t72.5 -51.5t91 -18.5q53 0 91 14.5t67 43.5q43 37 95 38h2q51 0 95 -40q20 -18 30.5 -42t11.5 -49.5t-7 -50t-26 -43.5 q-72 -70 -158 -106.5t-184 -36.5q-106 0 -200.5 36t-166.5 102.5t-114 159.5t-44 208z" />
<glyph unicode="u" horiz-adv-x="1101" d="M53 481v377q0 53 38 93t95 42q53 0 94.5 -40t41.5 -97v-360q0 -47 18 -89t49 -73t73 -49.5t89 -18.5q45 0 86 16.5t72.5 45t50 69.5t18.5 88v373q0 41 21 70q4 6 9 12t11 12q37 41 92 41t97 -41q39 -39 41 -88v-368q0 -102 -39 -192.5t-106.5 -158t-158 -106.5 t-194.5 -39h-19q-88 0 -170 34q-90 38 -158.5 104.5t-109.5 155.5t-41 187z" />
<glyph unicode="v" horiz-adv-x="925" d="M57 809q-12 26 -11 52q0 25 11 51q23 50 76 73q25 10 50 10q27 0 55 -12q52 -22 73 -76l152 -393l151 393q24 53 76 75q28 12 55 12q24 0 48 -9q53 -23 75 -73q11 -25 12 -50q0 -26 -12 -53l-276 -723q-10 -23 -44 -54.5t-81 -31.5q-41 0 -78 19.5t-53 66.5z" />
<glyph unicode="w" horiz-adv-x="1306" d="M61 354v504q-2 27 9.5 51.5t30 43t43 28.5t53.5 10q53 0 91 -35.5t42 -85.5v-508q2 -41 29.5 -67.5t66.5 -26.5q35 0 63.5 25.5t30.5 66.5v508q0 51 41 87t92 36q55 0 95 -39t40 -94v-498q0 -45 30 -68.5t65 -23.5q41 0 68.5 27t27.5 65v498q0 53 40 93t93 40t94 -36.5 t41 -86.5v-514q0 -74 -29.5 -139t-80 -112.5t-117 -75t-137.5 -27.5q-131 0 -230 80q-49 -41 -107.5 -60.5t-119.5 -19.5q-76 0 -142.5 28.5t-115.5 77t-78 113t-29 135.5z" />
<glyph unicode="x" horiz-adv-x="1107" d="M60 128v8q0 49 36 87l273 273l-273 272q-35 35 -35 80q1 5 1 10q4 51 38 92q41 41 88 41h8q52 -4 93 -41l266 -266l272 268q38 38 89 38h2q52 -1 94 -40q37 -37 37 -92t-37 -94l-267 -268l267 -269q37 -37 39 -93v-5q0 -53 -39 -92q-37 -37 -93.5 -37t-97.5 43l-266 262 l-266 -268q-37 -33 -93 -37h-9q-49 0 -87 37q-37 37 -40 91z" />
<glyph unicode="y" horiz-adv-x="1083" d="M25 512v350q0 53 38 92t95 39q51 0 93 -34.5t42 -90.5v-370q0 -47 17.5 -88t48 -72t72.5 -49.5t91 -18.5q43 0 85 16.5t74 45t51.5 68.5t19.5 87v375q0 53 37.5 92t95.5 39q53 0 94 -35.5t41 -89.5v-1052q0 -53 -41 -90t-94 -37q-51 0 -92 36.5t-41 96.5v235 q-47 -29 -107.5 -42t-122.5 -13q-100 0 -190 39t-159 106.5t-108.5 160.5t-39.5 204z" />
<glyph unicode="z" horiz-adv-x="1116" d="M63 131v10q0 49 37 82l500 502h-399h-6q-55 4 -93 41q-39 36 -39 85v9q-2 51 39 92q37 39 93 39h731q53 0 92 -39q39 -43 39 -92q0 -55 -39 -94l-20.5 -20.5l-20.5 -20.5l-228.5 -228.5t-230.5 -228.5h408q51 -2 92 -41q39 -43 39 -96q0 -49 -39 -92q-43 -39 -92 -39h-6 h-668h-51h-6q-53 0 -93 39q-41 41 -39 92z" />
<glyph unicode="{" horiz-adv-x="884" d="M23 516q0 59 39.5 100t99.5 41v152q0 100 40 190.5t108.5 159t159.5 109.5t192 41h26q57 0 98 -40t41 -98q0 -57 -41 -97t-98 -40q-51 0 -96 -28.5t-79 -72.5t-54.5 -97.5t-20.5 -104.5v-477q0 -49 20.5 -95t54.5 -82t79 -56.5t96 -20.5q57 0 98 -40t41 -95 q0 -59 -41 -99t-98 -40h-26q-100 0 -191.5 40.5t-160 109.5t-108.5 160t-40 191v152q-59 0 -99 40t-40 97z" />
<glyph unicode="|" horiz-adv-x="415" d="M61 -129v1294q0 59 42.5 102.5t101.5 43.5t102 -43t43 -103v-1294q0 -59 -43 -102t-102 -43t-101.5 43t-42.5 102z" />
<glyph unicode="}" horiz-adv-x="884" d="M57 -135q0 55 41.5 95t98.5 40q51 0 96 20.5t79 56.5t54 82t20 95v477q0 51 -20 104.5t-54 97.5t-79 72.5t-96 28.5q-57 0 -98.5 40t-41.5 97t41 97.5t99 40.5h26q100 0 191.5 -41t160 -109.5t108.5 -159t40 -190.5v-152q59 0 99 -41t40 -100q0 -57 -40 -97t-99 -40v-152 q0 -100 -40 -191t-108.5 -160t-159.5 -109.5t-192 -40.5h-26q-57 0 -98.5 39.5t-41.5 99.5z" />
<glyph unicode="~" horiz-adv-x="847" d="M1 550q-5 32 15 58q37 51 89.5 81t108.5 38t114.5 -6t107.5 -51q45 -35 104.5 -26t94.5 56q20 27 51.5 31t58.5 -14q27 -20 31 -52t-14 -59q-37 -51 -89 -80.5t-107.5 -39t-111 2t-100.5 46.5q-55 41 -116.5 33.5t-96.5 -54.5q-18 -27 -50 -32t-58 16q-27 20 -32 52z" />
<glyph unicode="&#xa1;" horiz-adv-x="370" d="M59 -133q0 -59 41.5 -99.5t100.5 -40.5q53 0 94 40t41 100v690q0 59 -41 99t-94 40q-59 0 -100.5 -40t-41.5 -99v-690zM59 899q0 -57 41 -98t101 -41q53 0 94 41t41 98q0 55 -41 96t-94 41q-59 0 -100.5 -41t-41.5 -96z" />
<glyph unicode="&#xa2;" horiz-adv-x="933" d="M25 496q0 98 39.5 188t108.5 157.5t159 108.5l28 13v202q0 59 42.5 102.5t101.5 43.5t102 -43t43 -103v-190q125 -31 221 -127q35 -39 32 -92.5t-40 -87.5q-37 -35 -94 -37t-94 37q-12 10 -25 18v-385q12 10 25 21q37 41 94 40.5t94 -40.5q18 -16 28.5 -39t11.5 -47.5 t-7 -48t-25 -42.5q-72 -72 -157 -108q-31 -14 -64 -23v-143q0 -59 -43 -102t-102 -43t-101.5 43t-42.5 102v156q-16 6 -30 12q-90 41 -158 108.5t-107.5 157.5t-39.5 191zM291 496q0 -47 18.5 -89t50.5 -75v323l-2 -2q-31 -30 -49 -71t-18 -86z" />
<glyph unicode="&#xa3;" horiz-adv-x="729" d="M27 627q0 53 35.5 92t95.5 47v174q0 72 27.5 138.5t75.5 117.5t113.5 82t139.5 31q61 0 103 -34t47 -101q0 -55 -39 -93.5t-99 -42.5q-37 0 -67 -30q-27 -29 -27 -68v-174q53 -4 90 -44t39 -95q0 -57 -36 -94t-93 -41v-218h103q57 0 97 -40.5t40 -96.5q0 -57 -40 -97 t-97 -40h-238q-59 0 -99 40t-40 99v353q-57 0 -92 36.5t-39 98.5z" />
<glyph unicode="&#xa4;" horiz-adv-x="1314" d="M76 629v616h110v-334l154 181h131l-172 -201l162 -221h22v434h111v-82q8 12 17.5 27.5t24.5 30t35.5 24.5t51.5 10q39 0 71.5 -24.5t49.5 -77.5q8 31 39.5 66.5t93.5 35.5q53 0 92 -40t39 -124v-170h131v-659h-170v51h90v418h-112q82 -20 81 -135q0 -59 -30.5 -100.5 t-89.5 -41.5q-53 0 -83 41t-30 101q0 55 17.5 90t64.5 45h-103v-53q-90 0 -90 -91v-122h-61v266h-90q31 -10 45 -38t14 -67v-8h-151q0 -16 5 -34.5t16 -36t30.5 -28.5t50.5 -11q14 0 27.5 4t21.5 4v-39q-23 -10 -39 -11t-39 -1q-61 0 -96 37.5t-35 115.5q0 45 15.5 74 t54.5 39h-82v-43l-123 -172h123v-51h-192v51l120 172h-120v43h-50v-328h90v-49h-174v416h-69zM229 670h101l-101 137v-137zM594 670h149v221q0 37 -2 59.5t-8 33.5t-16 14t-25 3q-25 0 -43 -17t-30.5 -43t-18.5 -55.5t-6 -56.5v-159zM784 547q6 10 21 21.5t31 21.5h-52v-43z M844 670h153v221q0 37 -2 59.5t-8 33.5t-16 14t-25 3q-23 0 -42 -17t-32.5 -43t-20.5 -55.5t-7 -56.5v-159zM1108 670h51v57h-51v-57z" />
<glyph unicode="&#xa5;" horiz-adv-x="1091" d="M54 1187.5q9 55.5 57 90.5q47 33 103 22.5t87 -59.5l244 -346l239 346q33 49 89.5 59.5t101.5 -22.5q49 -35 60.5 -90t-23.5 -105l-209 -315q53 -2 91 -42t38 -93q0 -55 -39 -95t-94 -40h-117v-90h117q55 0 94 -40.5t39 -95.5t-39 -95t-94 -40h-117q-2 -59 -43 -98 t-94 -39q-57 0 -98 39t-41 98h-113q-57 0 -96 40t-39 95t39 95.5t96 40.5h113v90h-113q-57 0 -96 40t-39 95q0 53 36.5 92t90.5 43l-209 315q-31 49 -22 104.5z" />
<glyph unicode="&#xa6;" horiz-adv-x="350" d="M37 -180v1349q0 55 40 96.5t99 41.5q55 0 95 -41t40 -97v-1349q0 -57 -40 -97t-95 -40q-59 0 -99 39.5t-40 97.5z" />
<glyph unicode="&#xa8;" horiz-adv-x="731" d="M0 1247q0 57 40 98t97 41q59 0 100.5 -41t41.5 -98t-41 -98t-101 -41q-57 0 -97 41t-40 98zM395 1247q0 57 40 98t97 41q59 0 100.5 -41t41.5 -98t-41 -98t-101 -41q-57 0 -97 41t-40 98z" />
<glyph unicode="&#xa9;" horiz-adv-x="1314" d="M76 629v616h110v-334l154 181h131l-172 -201l162 -221h22v434h111v-82q8 12 17.5 27.5t24.5 30t35.5 24.5t51.5 10q39 0 71.5 -24.5t49.5 -77.5q8 31 39.5 66.5t93.5 35.5q53 0 92 -40t39 -124v-170h131v-659h-170v51h90v418h-112q82 -20 81 -135q0 -59 -30.5 -100.5 t-89.5 -41.5q-53 0 -83 41t-30 101q0 55 17.5 90t64.5 45h-103v-53q-90 0 -90 -91v-122h-61v266h-90q31 -10 45 -38t14 -67v-8h-151q0 -16 5 -34.5t16 -36t30.5 -28.5t50.5 -11q14 0 27.5 4t21.5 4v-39q-23 -10 -39 -11t-39 -1q-61 0 -96 37.5t-35 115.5q0 45 15.5 74 t54.5 39h-82v-43l-123 -172h123v-51h-192v51l120 172h-120v43h-50v-328h90v-49h-174v416h-69zM229 670h101l-101 137v-137zM594 670h149v221q0 37 -2 59.5t-8 33.5t-16 14t-25 3q-25 0 -43 -17t-30.5 -43t-18.5 -55.5t-6 -56.5v-159zM784 547q6 10 21 21.5t31 21.5h-52v-43z M844 670h153v221q0 37 -2 59.5t-8 33.5t-16 14t-25 3q-23 0 -42 -17t-32.5 -43t-20.5 -55.5t-7 -56.5v-159zM1108 670h51v57h-51v-57z" />
<glyph unicode="&#xad;" horiz-adv-x="872" d="M0 616q0 59 39 99.5t98 40.5h522q57 0 97.5 -40.5t40.5 -99.5q0 -57 -40 -98t-98 -41h-522q-59 0 -98 41t-39 98z" />
<glyph unicode="&#xae;" horiz-adv-x="1314" d="M76 629v616h110v-334l154 181h131l-172 -201l162 -221h22v434h111v-82q8 12 17.5 27.5t24.5 30t35.5 24.5t51.5 10q39 0 71.5 -24.5t49.5 -77.5q8 31 39.5 66.5t93.5 35.5q53 0 92 -40t39 -124v-170h131v-659h-170v51h90v418h-112q82 -20 81 -135q0 -59 -30.5 -100.5 t-89.5 -41.5q-53 0 -83 41t-30 101q0 55 17.5 90t64.5 45h-103v-53q-90 0 -90 -91v-122h-61v266h-90q31 -10 45 -38t14 -67v-8h-151q0 -16 5 -34.5t16 -36t30.5 -28.5t50.5 -11q14 0 27.5 4t21.5 4v-39q-23 -10 -39 -11t-39 -1q-61 0 -96 37.5t-35 115.5q0 45 15.5 74 t54.5 39h-82v-43l-123 -172h123v-51h-192v51l120 172h-120v43h-50v-328h90v-49h-174v416h-69zM229 670h101l-101 137v-137zM594 670h149v221q0 37 -2 59.5t-8 33.5t-16 14t-25 3q-25 0 -43 -17t-30.5 -43t-18.5 -55.5t-6 -56.5v-159zM784 547q6 10 21 21.5t31 21.5h-52v-43z M844 670h153v221q0 37 -2 59.5t-8 33.5t-16 14t-25 3q-23 0 -42 -17t-32.5 -43t-20.5 -55.5t-7 -56.5v-159zM1108 670h51v57h-51v-57z" />
<glyph unicode="&#xb4;" horiz-adv-x="501" d="M-2 1071q-6 31 22 49l228 164q27 20 59.5 24.5t62 -6t50 -35t26.5 -57.5q6 -51 -23.5 -91t-78.5 -48l-289 -41q-23 -4 -39 7.5t-18 33.5z" />
<glyph unicode="&#xb5;" horiz-adv-x="1083" d="M25 -184v1052q0 53 40.5 89t94.5 36q57 0 95 -39t38 -92v-375q0 -47 19.5 -87t51 -68.5t73.5 -45t85 -16.5q49 0 91 18.5t73 49.5t48.5 72t17.5 88v370q0 55 42 90t93 35q57 0 95 -39t38 -92v-350q0 -111 -40 -204t-108.5 -160.5t-158.5 -106.5t-191 -39 q-61 0 -121.5 13.5t-107.5 41.5v-235q0 -59 -41 -96t-92 -37q-53 0 -94 36.5t-41 90.5z" />
<glyph unicode="&#xb7;" horiz-adv-x="309" d="M0 498q0 57 40 98t97 41q59 0 100.5 -41t41.5 -98t-41 -98.5t-101 -41.5q-57 0 -97 41t-40 99z" />
<glyph unicode="&#xbf;" horiz-adv-x="913" d="M-30 141q0 72 21.5 134.5t60.5 115.5q53 72 134 118t177 50v2q0 55 40 96t99 41q57 0 96 -41t39 -96v-139v-15q0 -53 -41 -88t-94 -39h-135q-51 -6 -86 -46t-35 -93q0 -59 41 -100t98 -41q59 0 100.5 41t41.5 100q0 57 41 97t98 40q53 0 92 -33.5t43 -87.5 q0 -82 -29.5 -159.5t-84 -138t-131.5 -96.5t-171 -36q-86 0 -160.5 33t-132 88t-90 131t-32.5 162zM367 899q0 57 40 97t97 40q55 0 94 -40t39 -97q0 -55 -38.5 -95t-94.5 -40q-57 0 -97 40t-40 95z" />
<glyph unicode="&#xc0;" horiz-adv-x="944" d="M57 137v318v278v164v2v4q0 84 33 158t88 129t130 87t159 32t158.5 -32t130 -87t88.5 -129t33 -158l2 -4v-2v-164v-278v-318q0 -57 -40 -97t-98 -40q-59 0 -99 40t-40 97v240h-268v-240q0 -57 -41 -97t-100 -40q-57 0 -96.5 40t-39.5 97zM250 1523q6 33 26.5 57.5t50 35 t61.5 6.5t61 -25l227 -164q29 -18 22 -49q-2 -23 -18 -34t-39 -7l-289 41q-49 8 -78.5 48t-23.5 91zM334 653h268v244q0 55 -40 95t-95 40t-94 -40t-39 -95v-244z" />
<glyph unicode="&#xc1;" horiz-adv-x="944" d="M57 137v318v278v164v2v4q0 84 33 158t88 129t130 87t159 32t158.5 -32t130 -87t88.5 -129t33 -158l2 -4v-2v-164v-278v-318q0 -57 -40 -97t-98 -40q-59 0 -99 40t-40 97v240h-268v-240q0 -57 -41 -97t-100 -40q-57 0 -96.5 40t-39.5 97zM246 1384q-6 31 22 49l228 164 q27 20 59.5 24.5t62 -6t50 -35t26.5 -57.5q6 -51 -23.5 -91t-78.5 -48l-289 -41q-23 -4 -39 7.5t-18 33.5zM334 653h268v244q0 55 -40 95t-95 40t-94 -40t-39 -95v-244z" />
<glyph unicode="&#xc2;" horiz-adv-x="944" d="M57 137v318v278v164v2v4q0 84 33 158t88 129t130 87t159 32t158.5 -32t130 -87t88.5 -129t33 -158l2 -4v-2v-164v-278v-318q0 -57 -40 -97t-98 -40q-59 0 -99 40t-40 97v240h-268v-240q0 -57 -41 -97t-100 -40q-57 0 -96.5 40t-39.5 97zM162 1431.5q2 28.5 25 46.5 l239 203q23 20 50.5 16t41.5 -16l240 -203q23 -18 25 -46.5t-17 -51.5q-20 -23 -48 -25t-50 17l-197 166l-194 -166q-23 -18 -51.5 -16.5t-47.5 24.5q-18 23 -16 51.5zM334 653h268v244q0 55 -40 95t-95 40t-94 -40t-39 -95v-244z" />
<glyph unicode="&#xc3;" horiz-adv-x="944" d="M57 137v318v278v164v2v4q0 84 33 158t88 129t130 87t159 32t158.5 -32t130 -87t88.5 -129t33 -158l2 -4v-2v-164v-278v-318q0 -57 -40 -97t-98 -40q-59 0 -99 40t-40 97v240h-268v-240q0 -57 -41 -97t-100 -40q-57 0 -96.5 40t-39.5 97zM85 1438q-5 32 15 59 q37 51 89.5 80.5t108.5 38t114.5 -6t107.5 -51.5q45 -35 104.5 -25.5t94.5 56.5q20 27 51.5 30.5t58.5 -14.5q27 -20 31 -52t-14 -58q-37 -51 -89 -81t-107.5 -39t-111 2t-100.5 46q-55 41 -116.5 34t-96.5 -54q-18 -27 -50 -32t-58 15q-27 20 -32 52zM334 653h268v244 q0 55 -40 95t-95 40t-94 -40t-39 -95v-244z" />
<glyph unicode="&#xc4;" horiz-adv-x="944" d="M57 137v318v278v164v2v4q0 84 33 158t88 129t130 87t159 32t158.5 -32t130 -87t88.5 -129t33 -158l2 -4v-2v-164v-278v-318q0 -57 -40 -97t-98 -40q-59 0 -99 40t-40 97v240h-268v-240q0 -57 -41 -97t-100 -40q-57 0 -96.5 40t-39.5 97zM135 1560q0 57 40 98t97 41 q59 0 100.5 -41t41.5 -98t-41 -98t-101 -41q-57 0 -97 41t-40 98zM334 653h268v244q0 55 -40 95t-95 40t-94 -40t-39 -95v-244zM530 1560q0 57 40 98t97 41q59 0 100.5 -41t41.5 -98t-41 -98t-101 -41q-57 0 -97 41t-40 98z" />
<glyph unicode="&#xc6;" horiz-adv-x="1472" d="M57 137v766q0 84 33 158t88 129t130 87t159 32t158 -33q12 -4 22 -8q37 41 96 41h545q57 0 97 -41t40 -99q0 -59 -39.5 -98t-97.5 -39h-409v-198h272q55 0 96 -41t41 -99q0 -57 -41 -97t-96 -40h-272v-281h409q57 0 97 -40.5t40 -96.5q0 -59 -39.5 -99t-97.5 -40h-545h-2 q-59 0 -99 40t-40 97v240h-268v-240q0 -57 -41 -97t-100 -40q-57 0 -96.5 40t-39.5 97zM334 653h268v244q0 55 -40 95t-95 40t-94 -40t-39 -95v-244z" />
<glyph unicode="&#xc8;" horiz-adv-x="950" d="M63 139v1030q0 53 39 96.5t99 43.5h544q57 0 97.5 -41t40.5 -99q0 -59 -40 -98t-98 -39h-409v-198h272q55 0 96 -41t41 -99q0 -57 -40.5 -97t-96.5 -40h-272v-281h409q57 0 97.5 -40.5t40.5 -96.5q0 -59 -40 -99t-98 -40h-544q-53 0 -95.5 40t-42.5 99zM252 1523 q6 33 26.5 57.5t50 35t61.5 6.5t61 -25l227 -164q29 -18 22 -49q-2 -23 -18 -34t-39 -7l-289 41q-49 8 -78.5 48t-23.5 91z" />
<glyph unicode="&#xc9;" horiz-adv-x="950" d="M63 139v1030q0 53 39 96.5t99 43.5h544q57 0 97.5 -41t40.5 -99q0 -59 -40 -98t-98 -39h-409v-198h272q55 0 96 -41t41 -99q0 -57 -40.5 -97t-96.5 -40h-272v-281h409q57 0 97.5 -40.5t40.5 -96.5q0 -59 -40 -99t-98 -40h-544q-53 0 -95.5 40t-42.5 99zM248 1384 q-6 31 22 49l228 164q27 20 59.5 24.5t62 -6t50 -35t26.5 -57.5q6 -51 -23.5 -91t-78.5 -48l-289 -41q-23 -4 -39 7.5t-18 33.5z" />
<glyph unicode="&#xca;" horiz-adv-x="950" d="M63 139v1030q0 53 39 96.5t99 43.5h544q57 0 97.5 -41t40.5 -99q0 -59 -40 -98t-98 -39h-409v-198h272q55 0 96 -41t41 -99q0 -57 -40.5 -97t-96.5 -40h-272v-281h409q57 0 97.5 -40.5t40.5 -96.5q0 -59 -40 -99t-98 -40h-544q-53 0 -95.5 40t-42.5 99zM164 1431.5 q2 28.5 25 46.5l239 203q23 20 50.5 16t41.5 -16l240 -203q23 -18 25 -46.5t-17 -51.5q-20 -23 -48 -25t-50 17l-197 166l-194 -166q-23 -18 -51.5 -16.5t-47.5 24.5q-18 23 -16 51.5z" />
<glyph unicode="&#xcb;" horiz-adv-x="950" d="M63 139v1030q0 53 39 96.5t99 43.5h544q57 0 97.5 -41t40.5 -99q0 -59 -40 -98t-98 -39h-409v-198h272q55 0 96 -41t41 -99q0 -57 -40.5 -97t-96.5 -40h-272v-281h409q57 0 97.5 -40.5t40.5 -96.5q0 -59 -40 -99t-98 -40h-544q-53 0 -95.5 40t-42.5 99zM137 1560 q0 57 40 98t97 41q59 0 100.5 -41t41.5 -98t-41 -98t-101 -41q-57 0 -97 41t-40 98zM532 1560q0 57 40 98t97 41q59 0 100.5 -41t41.5 -98t-41 -98t-101 -41q-57 0 -97 41t-40 98z" />
<glyph unicode="&#xcc;" horiz-adv-x="409" d="M-12 1523q6 33 26.5 57.5t50 35t61.5 6.5t61 -25l227 -164q29 -18 22 -49q-2 -23 -18 -34t-39 -7l-289 41q-49 8 -78.5 48t-23.5 91zM61 137v1032q0 55 40.5 96.5t99.5 41.5q55 0 95 -41t40 -97v-1032q0 -57 -40 -97t-95 -40q-59 0 -99.5 40t-40.5 97z" />
<glyph unicode="&#xcd;" horiz-adv-x="409" d="M-16 1384q-6 31 22 49l228 164q27 20 59.5 24.5t62 -6t50 -35t26.5 -57.5q6 -51 -23.5 -91t-78.5 -48l-289 -41q-23 -4 -39 7.5t-18 33.5zM61 137v1032q0 55 40.5 96.5t99.5 41.5q55 0 95 -41t40 -97v-1032q0 -57 -40 -97t-95 -40q-59 0 -99.5 40t-40.5 97z" />
<glyph unicode="&#xce;" horiz-adv-x="409" d="M-100 1431.5q2 28.5 25 46.5l239 203q23 20 50.5 16t41.5 -16l240 -203q23 -18 25 -46.5t-17 -51.5q-20 -23 -48 -25t-50 17l-197 166l-194 -166q-23 -18 -51.5 -16.5t-47.5 24.5q-18 23 -16 51.5zM61 137v1032q0 55 40.5 96.5t99.5 41.5q55 0 95 -41t40 -97v-1032 q0 -57 -40 -97t-95 -40q-59 0 -99.5 40t-40.5 97z" />
<glyph unicode="&#xcf;" horiz-adv-x="409" d="M-127 1560q0 57 40 98t97 41q59 0 100.5 -41t41.5 -98t-41 -98t-101 -41q-57 0 -97 41t-40 98zM61 137v1032q0 55 40.5 96.5t99.5 41.5q55 0 95 -41t40 -97v-1032q0 -57 -40 -97t-95 -40q-59 0 -99.5 40t-40.5 97zM268 1560q0 57 40 98t97 41q59 0 100.5 -41t41.5 -98 t-41 -98t-101 -41q-57 0 -97 41t-40 98z" />
<glyph unicode="&#xd0;" horiz-adv-x="997" d="M-80 616q0 59 39 99.5t98 40.5h6v413q0 53 40 96.5t100 43.5h278q90 0 175 -36t149.5 -99.5t103.5 -147.5t39 -182v-379q0 -92 -38 -176t-101.5 -148.5t-148.5 -102.5t-179 -38h-278q-55 0 -97.5 40t-42.5 99v338h-6q-59 0 -98 41t-39 98zM340 279h141q39 0 74 14 t60.5 39.5t40 59.5t14.5 73v379q0 39 -14.5 72.5t-40 59t-60.5 40t-74 14.5h-141v-274h14q57 0 97.5 -40.5t40.5 -99.5q0 -57 -40 -98t-98 -41h-14v-198z" />
<glyph unicode="&#xd1;" horiz-adv-x="1048" d="M55 139v705q2 94 38 178t99.5 146.5t147.5 99.5t180 41q94 0 176 -36t145.5 -99.5t101.5 -147.5t42 -182v-705q0 -59 -40 -99t-97 -40q-59 0 -99 40t-40 99v705q0 39 -15.5 73.5t-41 60.5t-59.5 40t-73 14t-73.5 -14t-60.5 -40t-41 -60.5t-15 -73.5v-705q0 -59 -40 -99 t-95 -40q-59 0 -99.5 40t-40.5 99zM136 1447q-5 32 15 59q37 51 89.5 80.5t108.5 38t114.5 -6t107.5 -51.5q45 -35 104.5 -25.5t94.5 56.5q20 27 51.5 30.5t58.5 -14.5q27 -20 31 -52t-14 -58q-37 -51 -89 -81t-107.5 -39t-111 2t-100.5 46q-55 41 -116.5 34t-96.5 -54 q-18 -27 -50 -32t-58 15q-27 20 -32 52z" />
<glyph unicode="&#xd2;" horiz-adv-x="1036" d="M49 467v377q2 92 39 177t99.5 148.5t147.5 101.5t181 38q94 0 176 -36t144.5 -99.5t100.5 -147.5t42 -182v-377q-4 -92 -40 -177t-97.5 -149.5t-144.5 -102.5t-181 -38q-94 0 -177 36t-146.5 99.5t-101.5 148.5t-42 183zM295 1523q6 33 26.5 57.5t50 35t61.5 6.5t61 -25 l227 -164q29 -18 22 -49q-2 -23 -18 -34t-39 -7l-289 41q-49 8 -78.5 48t-23.5 91zM326 467q0 -80 55 -135.5t135 -55.5q39 0 73 14.5t59.5 41t41 60.5t15.5 75v377q0 39 -15.5 73.5t-41 60.5t-59.5 40t-73 14q-41 0 -74.5 -14t-60.5 -40t-41 -60.5t-14 -73.5v-377z" />
<glyph unicode="&#xd3;" horiz-adv-x="1036" d="M49 467v377q2 92 39 177t99.5 148.5t147.5 101.5t181 38q94 0 176 -36t144.5 -99.5t100.5 -147.5t42 -182v-377q-4 -92 -40 -177t-97.5 -149.5t-144.5 -102.5t-181 -38q-94 0 -177 36t-146.5 99.5t-101.5 148.5t-42 183zM291 1384q-6 31 22 49l228 164q27 20 59.5 24.5 t62 -6t50 -35t26.5 -57.5q6 -51 -23.5 -91t-78.5 -48l-289 -41q-23 -4 -39 7.5t-18 33.5zM326 467q0 -80 55 -135.5t135 -55.5q39 0 73 14.5t59.5 41t41 60.5t15.5 75v377q0 39 -15.5 73.5t-41 60.5t-59.5 40t-73 14q-41 0 -74.5 -14t-60.5 -40t-41 -60.5t-14 -73.5v-377z " />
<glyph unicode="&#xd4;" horiz-adv-x="1036" d="M49 467v377q2 92 39 177t99.5 148.5t147.5 101.5t181 38q94 0 176 -36t144.5 -99.5t100.5 -147.5t42 -182v-377q-4 -92 -40 -177t-97.5 -149.5t-144.5 -102.5t-181 -38q-94 0 -177 36t-146.5 99.5t-101.5 148.5t-42 183zM207 1431.5q2 28.5 25 46.5l239 203 q23 20 50.5 16t41.5 -16l240 -203q23 -18 25 -46.5t-17 -51.5q-20 -23 -48 -25t-50 17l-197 166l-194 -166q-23 -18 -51.5 -16.5t-47.5 24.5q-18 23 -16 51.5zM326 467q0 -80 55 -135.5t135 -55.5q39 0 73 14.5t59.5 41t41 60.5t15.5 75v377q0 39 -15.5 73.5t-41 60.5 t-59.5 40t-73 14q-41 0 -74.5 -14t-60.5 -40t-41 -60.5t-14 -73.5v-377z" />
<glyph unicode="&#xd5;" horiz-adv-x="1036" d="M49 467v377q2 92 39 177t99.5 148.5t147.5 101.5t181 38q94 0 176 -36t144.5 -99.5t100.5 -147.5t42 -182v-377q-4 -92 -40 -177t-97.5 -149.5t-144.5 -102.5t-181 -38q-94 0 -177 36t-146.5 99.5t-101.5 148.5t-42 183zM130 1438q-5 32 15 59q37 51 89.5 80.5t108.5 38 t114.5 -6t107.5 -51.5q45 -35 104.5 -25.5t94.5 56.5q20 27 51.5 30.5t58.5 -14.5q27 -20 31 -52t-14 -58q-37 -51 -89 -81t-107.5 -39t-111 2t-100.5 46q-55 41 -116.5 34t-96.5 -54q-18 -27 -50 -32t-58 15q-27 20 -32 52zM326 467q0 -80 55 -135.5t135 -55.5 q39 0 73 14.5t59.5 41t41 60.5t15.5 75v377q0 39 -15.5 73.5t-41 60.5t-59.5 40t-73 14q-41 0 -74.5 -14t-60.5 -40t-41 -60.5t-14 -73.5v-377z" />
<glyph unicode="&#xd6;" horiz-adv-x="1036" d="M49 467v377q2 92 39 177t99.5 148.5t147.5 101.5t181 38q94 0 176 -36t144.5 -99.5t100.5 -147.5t42 -182v-377q-4 -92 -40 -177t-97.5 -149.5t-144.5 -102.5t-181 -38q-94 0 -177 36t-146.5 99.5t-101.5 148.5t-42 183zM180 1560q0 57 40 98t97 41q59 0 100.5 -41 t41.5 -98t-41 -98t-101 -41q-57 0 -97 41t-40 98zM326 467q0 -80 55 -135.5t135 -55.5q39 0 73 14.5t59.5 41t41 60.5t15.5 75v377q0 39 -15.5 73.5t-41 60.5t-59.5 40t-73 14q-41 0 -74.5 -14t-60.5 -40t-41 -60.5t-14 -73.5v-377zM575 1560q0 57 40 98t97 41 q59 0 100.5 -41t41.5 -98t-41 -98t-101 -41q-57 0 -97 41t-40 98z" />
<glyph unicode="&#xd7;" horiz-adv-x="1107" d="M101 169q-3 54 36 95l232 232l-232 231q-39 39 -35 90t39 92q45 45 96.5 41t92.5 -41l225 -225l231 227q39 39 91.5 38t93.5 -40q37 -37 37 -92t-37 -94l-226 -227l226 -228q37 -37 39 -93t-39 -97q-37 -37 -93.5 -37t-97.5 43l-225 221l-225 -227q-37 -33 -92.5 -37 t-96.5 37q-37 37 -40 91z" />
<glyph unicode="&#xd8;" horiz-adv-x="1028" d="M49 467v377q2 92 39 177t99.5 148.5t147.5 101.5t181 38q53 0 102 -13q50 23 101 7q53 -16 80 -68q8 -18 12 -39q12 -10 25 -22q63 -63 101 -147.5t42 -182.5v-377q-4 -92 -40 -177t-97.5 -149.5t-144.5 -102.5t-181 -38q-57 0 -110 12q-47 -20 -97 -6q-55 16 -82 66 q-12 23 -16 45q-10 8 -18 18q-63 63 -101.5 148.5t-42.5 183.5zM326 522l161 508q-24 -4 -47 -12q-33 -14 -59.5 -40t-40.5 -60.5t-14 -73.5v-322zM539 276q26 5 49 15q35 14 60.5 40.5t41 60.5t15.5 75v334z" />
<glyph unicode="&#xd9;" horiz-adv-x="1048" d="M55 467v702q0 57 40 98.5t100 41.5q57 0 96 -41t39 -99v-702q0 -41 15 -75t41 -60.5t59.5 -41t72.5 -14.5t74 14.5t60.5 41t41 60.5t15.5 75v702q0 57 39.5 98.5t99.5 41.5q57 0 97 -41t40 -99v-702q-2 -94 -38 -178t-98.5 -148.5t-147.5 -102.5t-183 -38q-94 0 -177 36 t-144.5 99.5t-99.5 148.5t-42 183zM301 1523q6 33 26.5 57.5t50 35t61.5 6.5t61 -25l227 -164q29 -18 22 -49q-2 -23 -18 -34t-39 -7l-289 41q-49 8 -78.5 48t-23.5 91z" />
<glyph unicode="&#xda;" horiz-adv-x="1048" d="M55 467v702q0 57 40 98.5t100 41.5q57 0 96 -41t39 -99v-702q0 -41 15 -75t41 -60.5t59.5 -41t72.5 -14.5t74 14.5t60.5 41t41 60.5t15.5 75v702q0 57 39.5 98.5t99.5 41.5q57 0 97 -41t40 -99v-702q-2 -94 -38 -178t-98.5 -148.5t-147.5 -102.5t-183 -38q-94 0 -177 36 t-144.5 99.5t-99.5 148.5t-42 183zM297 1384q-6 31 22 49l228 164q27 20 59.5 24.5t62 -6t50 -35t26.5 -57.5q6 -51 -23.5 -91t-78.5 -48l-289 -41q-23 -4 -39 7.5t-18 33.5z" />
<glyph unicode="&#xdb;" horiz-adv-x="1048" d="M55 467v702q0 57 40 98.5t100 41.5q57 0 96 -41t39 -99v-702q0 -41 15 -75t41 -60.5t59.5 -41t72.5 -14.5t74 14.5t60.5 41t41 60.5t15.5 75v702q0 57 39.5 98.5t99.5 41.5q57 0 97 -41t40 -99v-702q-2 -94 -38 -178t-98.5 -148.5t-147.5 -102.5t-183 -38q-94 0 -177 36 t-144.5 99.5t-99.5 148.5t-42 183zM213 1431.5q2 28.5 25 46.5l239 203q23 20 50.5 16t41.5 -16l240 -203q23 -18 25 -46.5t-17 -51.5q-20 -23 -48 -25t-50 17l-197 166l-194 -166q-23 -18 -51.5 -16.5t-47.5 24.5q-18 23 -16 51.5z" />
<glyph unicode="&#xdc;" horiz-adv-x="1048" d="M55 467v702q0 57 40 98.5t100 41.5q57 0 96 -41t39 -99v-702q0 -41 15 -75t41 -60.5t59.5 -41t72.5 -14.5t74 14.5t60.5 41t41 60.5t15.5 75v702q0 57 39.5 98.5t99.5 41.5q57 0 97 -41t40 -99v-702q-2 -94 -38 -178t-98.5 -148.5t-147.5 -102.5t-183 -38q-94 0 -177 36 t-144.5 99.5t-99.5 148.5t-42 183zM186 1560q0 57 40 98t97 41q59 0 100.5 -41t41.5 -98t-41 -98t-101 -41q-57 0 -97 41t-40 98zM581 1560q0 57 40 98t97 41q59 0 100.5 -41t41.5 -98t-41 -98t-101 -41q-57 0 -97 41t-40 98z" />
<glyph unicode="&#xdd;" horiz-adv-x="1071" d="M41.5 1187.5q9.5 55.5 56.5 90.5q47 33 103.5 22.5t87.5 -59.5l243 -346l240 346q33 49 89.5 59.5t101.5 -22.5q49 -35 60 -90t-24 -105l-329 -471v-473q0 -59 -41 -99t-97 -40q-57 0 -98 40t-41 99v473l-330 471q-31 49 -21.5 104.5zM309 1393q-6 31 22 49l228 164 q27 20 59.5 24.5t62 -6t50 -35t26.5 -57.5q6 -51 -23.5 -91t-78.5 -48l-289 -41q-23 -4 -39 7.5t-18 33.5z" />
<glyph unicode="&#xe0;" d="M43 496q0 53 11.5 102t31.5 96q59 133 180 215t275 82h29.5t27.5 -2q92 -10 173 -53t139.5 -109.5t92 -151.5t33.5 -179v-363q0 -55 -41 -94t-92 -39q-72 0 -115 66q-10 -4 -18 -9.5t-16 -9.5q-49 -23 -101 -35q-53 -12 -112 -12q-154 0 -275 83t-180 214 q-20 47 -31.5 96t-11.5 103zM293 1280q6 33 26.5 57.5t50 35t61.5 6.5t61 -25l227 -164q29 -18 22 -49q-2 -23 -18 -34t-39 -7l-289 41q-49 8 -78.5 48t-23.5 91zM311 496q0 -47 19.5 -89t51.5 -73t73 -49.5t84 -18.5q47 0 89 17.5t72.5 48t49 72.5t18.5 92q0 45 -18.5 87 t-50 73.5t-73.5 50t-87 18.5t-86 -18.5t-73 -50t-50.5 -73.5t-18.5 -87z" />
<glyph unicode="&#xe1;" d="M43 496q0 53 11.5 102t31.5 96q59 133 180 215t275 82h29.5t27.5 -2q92 -10 173 -53t139.5 -109.5t92 -151.5t33.5 -179v-363q0 -55 -41 -94t-92 -39q-72 0 -115 66q-10 -4 -18 -9.5t-16 -9.5q-49 -23 -101 -35q-53 -12 -112 -12q-154 0 -275 83t-180 214 q-20 47 -31.5 96t-11.5 103zM311 496q0 -47 19.5 -89t51.5 -73t73 -49.5t84 -18.5q47 0 89 17.5t72.5 48t49 72.5t18.5 92q0 45 -18.5 87t-50 73.5t-73.5 50t-87 18.5t-86 -18.5t-73 -50t-50.5 -73.5t-18.5 -87zM322 1145q-6 31 22 49l228 164q27 20 59.5 24.5t62 -6t50 -35 t26.5 -57.5q6 -51 -23.5 -91t-78.5 -48l-289 -41q-23 -4 -39 7.5t-18 33.5z" />
<glyph unicode="&#xe2;" d="M43 496q0 53 11.5 102t31.5 96q59 133 180 215t275 82h29.5t27.5 -2q92 -10 173 -53t139.5 -109.5t92 -151.5t33.5 -179v-363q0 -55 -41 -94t-92 -39q-72 0 -115 66q-10 -4 -18 -9.5t-16 -9.5q-49 -23 -101 -35q-53 -12 -112 -12q-154 0 -275 83t-180 214 q-20 47 -31.5 96t-11.5 103zM231 1118.5q2 28.5 25 46.5l239 203q23 20 50.5 16t41.5 -16l240 -203q23 -18 25 -46.5t-17 -51.5q-20 -23 -48 -25t-50 17l-197 166l-194 -166q-23 -18 -51.5 -16.5t-47.5 24.5q-18 23 -16 51.5zM311 496q0 -47 19.5 -89t51.5 -73t73 -49.5 t84 -18.5q47 0 89 17.5t72.5 48t49 72.5t18.5 92q0 45 -18.5 87t-50 73.5t-73.5 50t-87 18.5t-86 -18.5t-73 -50t-50.5 -73.5t-18.5 -87z" />
<glyph unicode="&#xe3;" d="M43 496q0 53 11.5 102t31.5 96q59 133 180 215t275 82h29.5t27.5 -2q92 -10 173 -53t139.5 -109.5t92 -151.5t33.5 -179v-363q0 -55 -41 -94t-92 -39q-72 0 -115 66q-10 -4 -18 -9.5t-16 -9.5q-49 -23 -101 -35q-53 -12 -112 -12q-154 0 -275 83t-180 214 q-20 47 -31.5 96t-11.5 103zM161 1205q-5 32 15 59q37 51 89.5 80.5t108.5 38t114.5 -6t107.5 -51.5q45 -35 104.5 -25.5t94.5 56.5q20 27 51.5 30.5t58.5 -14.5q27 -20 31 -52t-14 -58q-37 -51 -89 -81t-107.5 -39t-111 2t-100.5 46q-55 41 -116.5 34t-96.5 -54 q-18 -27 -50 -32t-58 15q-27 20 -32 52zM311 496q0 -47 19.5 -89t51.5 -73t73 -49.5t84 -18.5q47 0 89 17.5t72.5 48t49 72.5t18.5 92q0 45 -18.5 87t-50 73.5t-73.5 50t-87 18.5t-86 -18.5t-73 -50t-50.5 -73.5t-18.5 -87z" />
<glyph unicode="&#xe4;" horiz-adv-x="1097" d="M43 496q0 53 11.5 102t31.5 96q59 133 180 215t275 82h29.5t27.5 -2q92 -10 173 -53t139.5 -109.5t92 -151.5t33.5 -179v-363q0 -55 -41 -94t-92 -39q-72 0 -115 66q-10 -4 -18 -9.5t-16 -9.5q-49 -23 -101 -35q-53 -12 -112 -12q-154 0 -275 83t-180 214 q-20 47 -31.5 96t-11.5 103zM211 1247q0 57 40 98t97 41q59 0 100.5 -41t41.5 -98t-41 -98t-101 -41q-57 0 -97 41t-40 98zM311 496q0 -47 19.5 -89t51.5 -73t73 -49.5t84 -18.5q47 0 89 17.5t72.5 48t49 72.5t18.5 92q0 45 -18.5 87t-50 73.5t-73.5 50t-87 18.5t-86 -18.5 t-73 -50t-50.5 -73.5t-18.5 -87zM606 1247q0 57 40 98t97 41q59 0 100.5 -41t41.5 -98t-41 -98t-101 -41q-57 0 -97 41t-40 98z" />
<glyph unicode="&#xe6;" horiz-adv-x="1822" d="M43 496q0 53 11.5 102t31.5 96q59 133 180 215t275 82h28q14 0 29 -2q92 -10 172 -53q78 -43 135 -105q6 4 10 9q68 70 158.5 110.5t190.5 40.5q98 0 188 -41t158.5 -109.5t109.5 -157.5t41 -187q0 -53 -40 -94.5t-99 -39.5h-545q68 -96 187 -96q33 0 55 6.5t39.5 14.5 t35 14t40.5 6q43 -2 74.5 -24.5t47 -56t10.5 -72.5t-36 -72q-55 -45 -123 -62.5t-143 -19.5q-98 -4 -189 35q-31 14 -57 31q-10 -14 -23 -27q-41 -39 -92 -39q-72 0 -115 66q-10 -4 -18 -9.5t-16 -9.5q-49 -23 -101 -35q-53 -12 -112 -12q-154 0 -275 83t-180 214 q-20 47 -31.5 96t-11.5 103zM311 496q0 -47 19.5 -89t51.5 -73t73 -49.5t84 -18.5q47 0 89 17.5t72.5 48t49 72.5t18.5 92v14q-4 37 -18 72q-18 43 -50 74.5t-74 50t-87 18.5t-86 -18.5t-73 -50t-50.5 -73.5t-18.5 -87zM1077 631h373q-35 43 -82 68.5t-104 25.5 q-59 0 -105.5 -25.5t-81.5 -68.5z" />
<glyph unicode="&#xe8;" horiz-adv-x="1101" d="M43 496q0 96 40 186t107.5 158.5t158 109.5t190.5 41q98 0 188 -41t158.5 -109.5t109.5 -157.5t41 -187q0 -53 -40 -94.5t-99 -39.5h-545q68 -96 187 -96q33 0 55 6.5t39.5 14.5t35 14t40.5 6q43 -2 74.5 -24.5t47 -56t10.5 -72.5t-36 -72q-55 -45 -123 -62.5t-143 -19.5 q-98 -4 -188.5 36t-159 108.5t-108.5 160.5t-40 191zM328 1284q6 33 26.5 57.5t50 35t61.5 6.5t61 -25l227 -164q29 -18 22 -49q-2 -23 -18 -34t-39 -7l-289 41q-49 8 -78.5 48t-23.5 91zM352 631h373q-35 43 -82 68.5t-104 25.5q-59 0 -105.5 -25.5t-81.5 -68.5z" />
<glyph unicode="&#xe9;" horiz-adv-x="1101" d="M43 496q0 96 40 186t107.5 158.5t158 109.5t190.5 41q98 0 188 -41t158.5 -109.5t109.5 -157.5t41 -187q0 -53 -40 -94.5t-99 -39.5h-545q68 -96 187 -96q33 0 55 6.5t39.5 14.5t35 14t40.5 6q43 -2 74.5 -24.5t47 -56t10.5 -72.5t-36 -72q-55 -45 -123 -62.5t-143 -19.5 q-98 -4 -188.5 36t-159 108.5t-108.5 160.5t-40 191zM324 1147q-6 31 22 49l228 164q27 20 59.5 24.5t62 -6t50 -35t26.5 -57.5q6 -51 -23.5 -91t-78.5 -48l-289 -41q-23 -4 -39 7.5t-18 33.5zM352 631h373q-35 43 -82 68.5t-104 25.5q-59 0 -105.5 -25.5t-81.5 -68.5z" />
<glyph unicode="&#xea;" horiz-adv-x="1101" d="M43 496q0 96 40 186t107.5 158.5t158 109.5t190.5 41q98 0 188 -41t158.5 -109.5t109.5 -157.5t41 -187q0 -53 -40 -94.5t-99 -39.5h-545q68 -96 187 -96q33 0 55 6.5t39.5 14.5t35 14t40.5 6q43 -2 74.5 -24.5t47 -56t10.5 -72.5t-36 -72q-55 -45 -123 -62.5t-143 -19.5 q-98 -4 -188.5 36t-159 108.5t-108.5 160.5t-40 191zM227 1122.5q2 28.5 25 46.5l239 203q23 20 50.5 16t41.5 -16l240 -203q23 -18 25 -46.5t-17 -51.5q-20 -23 -48 -25t-50 17l-197 166l-194 -166q-23 -18 -51.5 -16.5t-47.5 24.5q-18 23 -16 51.5zM352 631h373 q-35 43 -82 68.5t-104 25.5q-59 0 -105.5 -25.5t-81.5 -68.5z" />
<glyph unicode="&#xeb;" horiz-adv-x="1101" d="M43 496q0 96 40 186t107.5 158.5t158 109.5t190.5 41q98 0 188 -41t158.5 -109.5t109.5 -157.5t41 -187q0 -53 -40 -94.5t-99 -39.5h-545q68 -96 187 -96q33 0 55 6.5t39.5 14.5t35 14t40.5 6q43 -2 74.5 -24.5t47 -56t10.5 -72.5t-36 -72q-55 -45 -123 -62.5t-143 -19.5 q-98 -4 -188.5 36t-159 108.5t-108.5 160.5t-40 191zM201 1247q0 57 40 98t97 41q59 0 100.5 -41t41.5 -98t-41 -98t-101 -41q-57 0 -97 41t-40 98zM352 631h373q-35 43 -82 68.5t-104 25.5q-59 0 -105.5 -25.5t-81.5 -68.5zM596 1247q0 57 40 98t97 41q59 0 100.5 -41 t41.5 -98t-41 -98t-101 -41q-57 0 -97 41t-40 98z" />
<glyph unicode="&#xec;" horiz-adv-x="530" d="M25 1286q6 33 26.5 57.5t50 35t61.5 6t60 -24.5l228 -164q29 -18 22 -49q-2 -23 -18.5 -34t-38.5 -7l-289 41q-49 8 -79 48t-23 91zM213 121v741q4 53 43 88t92 37q53 0 89 -39t40 -94v-725q0 -55 -34.5 -92t-94.5 -41q-53 0 -90 32.5t-45 92.5z" />
<glyph unicode="&#xed;" horiz-adv-x="524" d="M51 1145q-6 31 23 49l227 164q27 20 59.5 24t62.5 -6t50.5 -34.5t26.5 -57.5q6 -51 -24 -91t-79 -48l-288 -41q-23 -4 -39.5 7t-18.5 34zM59 121v741q4 53 43.5 88t92.5 37q53 0 88.5 -39t40.5 -94v-725q0 -55 -35 -92t-94 -41q-53 0 -90 32.5t-46 92.5z" />
<glyph unicode="&#xee;" horiz-adv-x="675" d="M29 1118.5q2 28.5 24 46.5l240 203q23 20 50.5 16t41.5 -16l240 -203q23 -18 24.5 -46.5t-16.5 -51.5q-20 -23 -48 -25t-50 17l-197 166l-195 -166q-23 -18 -51.5 -16.5t-46.5 24.5t-16 51.5zM201 121v741q4 53 43 88t92 37q53 0 89 -39t40 -94v-725q0 -55 -35 -92 t-94 -41q-53 0 -90 32.5t-45 92.5z" />
<glyph unicode="&#xef;" horiz-adv-x="741" d="M35 1247q0 57 40 98t97 41q59 0 100 -41t41 -98t-41 -98t-100 -41q-57 0 -97 41t-40 98zM236 121v741q4 53 43 88t92 37q53 0 89 -39t40 -94v-725q0 -55 -35 -92t-94 -41q-53 0 -90 32.5t-45 92.5zM430 1247q0 57 40 98t97 41q59 0 100.5 -41t41.5 -98t-41 -98t-101 -41 q-57 0 -97 41t-40 98z" />
<glyph unicode="&#xf1;" horiz-adv-x="1107" d="M53 133v369q2 102 40 192t104.5 158t157 106.5t196.5 38.5q98 0 188 -35.5t158 -100t109 -152.5t41 -191v-379q0 -53 -38 -92t-94 -41q-55 0 -95 36t-40 91v369q0 47 -17.5 89t-49 72.5t-73.5 49t-91 18.5q-45 0 -86 -17.5t-72 -46t-49 -69.5t-18 -86v-373q0 -53 -41 -93 t-95 -40q-53 0 -94 37t-41 90zM167 1125q-5 32 15 59q37 51 89.5 80.5t108.5 38t114.5 -6t107.5 -51.5q45 -35 104.5 -25.5t94.5 56.5q20 27 51.5 30.5t58.5 -14.5q27 -20 31 -52t-14 -58q-37 -51 -89 -81t-107.5 -39t-111 2t-100.5 46q-55 41 -116.5 34t-96.5 -54 q-18 -27 -50 -32t-58 15q-27 20 -32 52z" />
<glyph unicode="&#xf2;" horiz-adv-x="1097" d="M43 475q0 102 38 191.5t104.5 156t158 106.5t195.5 44q100 0 190 -39t157.5 -106.5t107.5 -157.5t40 -195q0 -102 -39 -191t-105.5 -157t-156.5 -106.5t-194 -38.5q-102 0 -192.5 36.5t-158 103t-106.5 157t-39 196.5zM309 475q0 -47 18.5 -89t50.5 -73.5t73 -50 t88 -18.5t89 18.5t72.5 50t49 73.5t18.5 89q-4 94 -67.5 160t-161.5 70q-47 0 -88 -17.5t-73 -48.5t-50.5 -73t-18.5 -91zM322 1286q6 33 26.5 57.5t50 35t61.5 6.5t61 -25l227 -164q29 -18 22 -49q-2 -23 -18 -34t-39 -7l-289 41q-49 8 -78.5 48t-23.5 91z" />
<glyph unicode="&#xf3;" horiz-adv-x="1097" d="M43 475q0 102 38 191.5t104.5 156t158 106.5t195.5 44q100 0 190 -39t157.5 -106.5t107.5 -157.5t40 -195q0 -102 -39 -191t-105.5 -157t-156.5 -106.5t-194 -38.5q-102 0 -192.5 36.5t-158 103t-106.5 157t-39 196.5zM309 475q0 -47 18.5 -89t50.5 -73.5t73 -50 t88 -18.5t89 18.5t72.5 50t49 73.5t18.5 89q-4 94 -67.5 160t-161.5 70q-47 0 -88 -17.5t-73 -48.5t-50.5 -73t-18.5 -91zM309 1145q-6 31 22 49l228 164q27 20 59.5 24.5t62 -6t50 -35t26.5 -57.5q6 -51 -23.5 -91t-78.5 -48l-289 -41q-23 -4 -39 7.5t-18 33.5z" />
<glyph unicode="&#xf4;" horiz-adv-x="1097" d="M43 475q0 102 38 191.5t104.5 156t158 106.5t195.5 44q100 0 190 -39t157.5 -106.5t107.5 -157.5t40 -195q0 -102 -39 -191t-105.5 -157t-156.5 -106.5t-194 -38.5q-102 0 -192.5 36.5t-158 103t-106.5 157t-39 196.5zM231 1124.5q2 28.5 25 46.5l239 203q23 20 50.5 16 t41.5 -16l240 -203q23 -18 25 -46.5t-17 -51.5q-20 -23 -48 -25t-50 17l-197 166l-194 -166q-23 -18 -51.5 -16.5t-47.5 24.5q-18 23 -16 51.5zM309 475q0 -47 18.5 -89t50.5 -73.5t73 -50t88 -18.5t89 18.5t72.5 50t49 73.5t18.5 89q-4 94 -67.5 160t-161.5 70 q-47 0 -88 -17.5t-73 -48.5t-50.5 -73t-18.5 -91z" />
<glyph unicode="&#xf5;" horiz-adv-x="1097" d="M43 475q0 102 38 191.5t104.5 156t158 106.5t195.5 44q100 0 190 -39t157.5 -106.5t107.5 -157.5t40 -195q0 -102 -39 -191t-105.5 -157t-156.5 -106.5t-194 -38.5q-102 0 -192.5 36.5t-158 103t-106.5 157t-39 196.5zM151 1205q-5 32 15 59q37 51 89.5 80.5t108.5 38 t114.5 -6t107.5 -51.5q45 -35 104.5 -25.5t94.5 56.5q20 27 51.5 30.5t58.5 -14.5q27 -20 31 -52t-14 -58q-37 -51 -89 -81t-107.5 -39t-111 2t-100.5 46q-55 41 -116.5 34t-96.5 -54q-18 -27 -50 -32t-58 15q-27 20 -32 52zM309 475q0 -47 18.5 -89t50.5 -73.5t73 -50 t88 -18.5t89 18.5t72.5 50t49 73.5t18.5 89q-4 94 -67.5 160t-161.5 70q-47 0 -88 -17.5t-73 -48.5t-50.5 -73t-18.5 -91z" />
<glyph unicode="&#xf6;" horiz-adv-x="1097" d="M43 475q0 102 38 191.5t104.5 156t158 106.5t195.5 44q100 0 190 -39t157.5 -106.5t107.5 -157.5t40 -195q0 -102 -39 -191t-105.5 -157t-156.5 -106.5t-194 -38.5q-102 0 -192.5 36.5t-158 103t-106.5 157t-39 196.5zM201 1247q0 57 40 98t97 41q59 0 100.5 -41 t41.5 -98t-41 -98t-101 -41q-57 0 -97 41t-40 98zM309 475q0 -47 18.5 -89t50.5 -73.5t73 -50t88 -18.5t89 18.5t72.5 50t49 73.5t18.5 89q-4 94 -67.5 160t-161.5 70q-47 0 -88 -17.5t-73 -48.5t-50.5 -73t-18.5 -91zM596 1247q0 57 40 98t97 41q59 0 100.5 -41t41.5 -98 t-41 -98t-101 -41q-57 0 -97 41t-40 98z" />
<glyph unicode="&#xf7;" horiz-adv-x="827" d="M0 616q0 -57 39 -98t98 -41h522q57 0 97.5 41t40.5 98q0 59 -40 99.5t-98 40.5h-522q-59 0 -98 -40t-39 -100zM248 260q0 57 40 98t97 41q59 0 100 -41t41 -98t-41 -98t-100 -41q-57 0 -97 41t-40 98zM248 975q0 57 40 98t97 41q59 0 100 -41t41 -98t-41 -98t-100 -41 q-57 0 -97 41t-40 98z" />
<glyph unicode="&#xf9;" d="M53 481v377q0 53 38 93t95 42q53 0 94.5 -40t41.5 -97v-360q0 -47 18 -89t49 -73t73 -49.5t89 -18.5q45 0 86 16.5t72.5 45t50 69.5t18.5 88v373q0 41 21 70q4 6 9 12t11 12q37 41 92 41t97 -41q39 -39 41 -88v-368q0 -102 -39 -192.5t-106.5 -158t-158 -106.5 t-194.5 -39q-98 -4 -188.5 34t-159 104.5t-109.5 155.5t-41 187zM328 1286q6 33 26.5 57.5t50 35t61.5 6.5t61 -25l227 -164q29 -18 22 -49q-2 -23 -18 -34t-39 -7l-289 41q-49 8 -78.5 48t-23.5 91z" />
<glyph unicode="&#xfa;" d="M53 481v377q0 53 38 93t95 42q53 0 94.5 -40t41.5 -97v-360q0 -47 18 -89t49 -73t73 -49.5t89 -18.5q45 0 86 16.5t72.5 45t50 69.5t18.5 88v373q0 41 21 70q4 6 9 12t11 12q37 41 92 41t97 -41q39 -39 41 -88v-368q0 -102 -39 -192.5t-106.5 -158t-158 -106.5 t-194.5 -39q-98 -4 -188.5 34t-159 104.5t-109.5 155.5t-41 187zM328 1145q-6 31 22 49l228 164q27 20 59.5 24.5t62 -6t50 -35t26.5 -57.5q6 -51 -23.5 -91t-78.5 -48l-289 -41q-23 -4 -39 7.5t-18 33.5z" />
<glyph unicode="&#xfb;" d="M53 481v377q0 53 38 93t95 42q53 0 94.5 -40t41.5 -97v-360q0 -47 18 -89t49 -73t73 -49.5t89 -18.5q45 0 86 16.5t72.5 45t50 69.5t18.5 88v373q0 41 21 70q4 6 9 12t11 12q37 41 92 41t97 -41q39 -39 41 -88v-368q0 -102 -39 -192.5t-106.5 -158t-158 -106.5 t-194.5 -39q-98 -4 -188.5 34t-159 104.5t-109.5 155.5t-41 187zM242 1124.5q2 28.5 25 46.5l239 203q23 20 50.5 16t41.5 -16l240 -203q23 -18 25 -46.5t-17 -51.5q-20 -23 -48 -25t-50 17l-197 166l-194 -166q-23 -18 -51.5 -16.5t-47.5 24.5q-18 23 -16 51.5z" />
<glyph unicode="&#xfc;" d="M53 481v377q0 53 38 93t95 42q53 0 94.5 -40t41.5 -97v-360q0 -47 18 -89t49 -73t73 -49.5t89 -18.5q45 0 86 16.5t72.5 45t50 69.5t18.5 88v373q0 41 21 70q4 6 9 12t11 12q37 41 92 41t97 -41q39 -39 41 -88v-368q0 -102 -39 -192.5t-106.5 -158t-158 -106.5 t-194.5 -39q-98 -4 -188.5 34t-159 104.5t-109.5 155.5t-41 187zM219 1247q0 57 40 98t97 41q59 0 100.5 -41t41.5 -98t-41 -98t-101 -41q-57 0 -97 41t-40 98zM614 1247q0 57 40 98t97 41q59 0 100.5 -41t41.5 -98t-41 -98t-101 -41q-57 0 -97 41t-40 98z" />
<glyph unicode="&#xfd;" horiz-adv-x="1124" d="M25 512v350q0 53 38 92t95 39q51 0 93 -34.5t42 -90.5v-370q0 -47 17.5 -88t48 -72t72.5 -49.5t91 -18.5q43 0 85 16.5t74 45t51.5 68.5t19.5 87v375q0 53 37.5 92t95.5 39q53 0 94 -35.5t41 -89.5v-1052q0 -53 -41 -90t-94 -37q-51 0 -92 36.5t-41 96.5v235 q-47 -29 -107.5 -42t-122.5 -13q-100 0 -190 39t-159 106.5t-108.5 160.5t-39.5 204zM295 1147q-6 31 22 49l228 164q27 20 59.5 24.5t62 -6t50 -35t26.5 -57.5q6 -51 -23.5 -91t-78.5 -48l-289 -41q-23 -4 -39 7.5t-18 33.5z" />
<glyph unicode="&#xff;" horiz-adv-x="1124" d="M25 512v350q0 53 38 92t95 39q51 0 93 -34.5t42 -90.5v-370q0 -47 17.5 -88t48 -72t72.5 -49.5t91 -18.5q43 0 85 16.5t74 45t51.5 68.5t19.5 87v375q0 53 37.5 92t95.5 39q53 0 94 -35.5t41 -89.5v-1052q0 -53 -41 -90t-94 -37q-51 0 -92 36.5t-41 96.5v235 q-47 -29 -107.5 -42t-122.5 -13q-100 0 -190 39t-159 106.5t-108.5 160.5t-39.5 204zM174 1247q0 57 40 98t97 41q59 0 100.5 -41t41.5 -98t-41 -98t-101 -41q-57 0 -97 41t-40 98zM569 1247q0 57 40 98t97 41q59 0 100.5 -41t41.5 -98t-41 -98t-101 -41q-57 0 -97 41 t-40 98z" />
<glyph unicode="&#x152;" horiz-adv-x="1574" d="M49 467v377q2 92 39 177t99.5 148.5t147.5 101.5t181 38q94 0 176 -37q20 -8 39 -19l10 13q39 43 99 43h544q57 0 97.5 -41t40.5 -99q0 -59 -40 -98t-98 -39h-409v-141q2 -23 4 -47v-10h268q55 0 96 -41t41 -99q0 -57 -40.5 -97t-96.5 -40h-268v-90q-2 -25 -4 -47v-144 h409q57 0 97.5 -40.5t40.5 -96.5q0 -59 -40 -99t-98 -40h-544q-53 0 -97 39l-14 14q-16 -8 -33 -16q-82 -37 -180 -37q-94 0 -177 36t-146.5 99.5t-101.5 148.5t-42 183zM326 467q0 -80 55 -135.5t135 -55.5q39 0 73 14.5t59.5 41t39.5 59.5q10 20 14 43v440q-4 23 -14 44 q-14 35 -39.5 60.5t-59.5 39.5t-73 14q-41 0 -74.5 -14t-60.5 -40t-41 -60.5t-14 -73.5v-377z" />
<glyph unicode="&#x153;" horiz-adv-x="1802" d="M43 475q0 102 38 191.5t104.5 156t157.5 106.5t196 44q100 0 190 -39t158 -107l8 -10q10 12 23 23q68 70 158 110.5t190 40.5q98 0 188 -41t158.5 -109.5t109.5 -157.5t41 -187q0 -53 -40 -94.5t-99 -39.5h-545q68 -96 187 -96q33 0 55 6.5t39.5 14.5t35 14t40.5 6 q43 -2 74.5 -24.5t47 -56t10.5 -72.5t-36 -72q-55 -45 -123 -62.5t-143 -19.5q-98 -4 -188.5 36t-159.5 107l-7 7q-10 -12 -22 -23q-66 -68 -156 -106.5t-194 -38.5q-102 0 -192.5 36.5t-158 103t-106.5 157t-39 196.5zM309 475q0 -47 18.5 -89t50.5 -73.5t73 -50t88 -18.5 t89 18.5t72.5 50t49 73.5t18.5 89q-4 94 -67.5 160t-161.5 70q-47 0 -88 -17.5t-73 -48.5t-50.5 -73t-18.5 -91zM1079 631h373q-35 43 -82 68.5t-104 25.5q-59 0 -105.5 -25.5t-81.5 -68.5z" />
<glyph unicode="&#x178;" horiz-adv-x="1071" d="M41.5 1187.5q9.5 55.5 56.5 90.5q47 33 103.5 22.5t87.5 -59.5l243 -346l240 346q33 49 89.5 59.5t101.5 -22.5q49 -35 60 -90t-24 -105l-329 -471v-473q0 -59 -41 -99t-97 -40q-57 0 -98 40t-41 99v473l-330 471q-31 49 -21.5 104.5zM199 1569q0 57 40 98t97 41 q59 0 100.5 -41t41.5 -98t-41 -98t-101 -41q-57 0 -97 41t-40 98zM594 1569q0 57 40 98t97 41q59 0 100.5 -41t41.5 -98t-41 -98t-101 -41q-57 0 -97 41t-40 98z" />
<glyph unicode="&#x2c6;" horiz-adv-x="655" d="M-2 1118.5q2 28.5 25 46.5l239 203q23 20 50.5 16t41.5 -16l240 -203q23 -18 25 -46.5t-17 -51.5q-20 -23 -48 -25t-50 17l-197 166l-194 -166q-23 -18 -51.5 -16.5t-47.5 24.5q-18 23 -16 51.5z" />
<glyph unicode="&#x2dc;" horiz-adv-x="847" d="M1 1125q-5 32 15 59q37 51 89.5 80.5t108.5 38t114.5 -6t107.5 -51.5q45 -35 104.5 -25.5t94.5 56.5q20 27 51.5 30.5t58.5 -14.5q27 -20 31 -52t-14 -58q-37 -51 -89 -81t-107.5 -39t-111 2t-100.5 46q-55 41 -116.5 34t-96.5 -54q-18 -27 -50 -32t-58 15q-27 20 -32 52 z" />
<glyph unicode="&#x2000;" horiz-adv-x="854" />
<glyph unicode="&#x2001;" horiz-adv-x="1708" />
<glyph unicode="&#x2002;" horiz-adv-x="854" />
<glyph unicode="&#x2003;" horiz-adv-x="1708" />
<glyph unicode="&#x2004;" horiz-adv-x="569" />
<glyph unicode="&#x2005;" horiz-adv-x="427" />
<glyph unicode="&#x2006;" horiz-adv-x="284" />
<glyph unicode="&#x2007;" horiz-adv-x="284" />
<glyph unicode="&#x2008;" horiz-adv-x="213" />
<glyph unicode="&#x2009;" horiz-adv-x="341" />
<glyph unicode="&#x200a;" horiz-adv-x="94" />
<glyph unicode="&#x2010;" horiz-adv-x="872" d="M0 616q0 59 39 99.5t98 40.5h522q57 0 97.5 -40.5t40.5 -99.5q0 -57 -40 -98t-98 -41h-522q-59 0 -98 41t-39 98z" />
<glyph unicode="&#x2011;" horiz-adv-x="872" d="M0 616q0 59 39 99.5t98 40.5h522q57 0 97.5 -40.5t40.5 -99.5q0 -57 -40 -98t-98 -41h-522q-59 0 -98 41t-39 98z" />
<glyph unicode="&#x2012;" horiz-adv-x="872" d="M0 616q0 59 39 99.5t98 40.5h522q57 0 97.5 -40.5t40.5 -99.5q0 -57 -40 -98t-98 -41h-522q-59 0 -98 41t-39 98z" />
<glyph unicode="&#x2013;" horiz-adv-x="872" d="M0 616q0 59 39 99.5t98 40.5h522q57 0 97.5 -40.5t40.5 -99.5q0 -57 -40 -98t-98 -41h-522q-59 0 -98 41t-39 98z" />
<glyph unicode="&#x2014;" horiz-adv-x="1044" d="M0 616q0 59 39 99.5t98 40.5h686q57 0 97.5 -40.5t40.5 -99.5q0 -57 -40 -98t-98 -41h-686q-59 0 -98 41t-39 98z" />
<glyph unicode="&#x2018;" horiz-adv-x="348" d="M-1 915.5q-1 36.5 19 71.5l146 285q20 37 53 37q25 0 41 -17.5t16 -42.5v-334q0 -57 -39.5 -97t-99.5 -40q-39 0 -69.5 19.5t-48 50.5t-18.5 67.5z" />
<glyph unicode="&#x2019;" horiz-adv-x="346" d="M0 838v333q0 57 40 97.5t99 40.5q39 0 70 -19.5t48 -50.5t18 -67.5t-19 -71.5l-145 -285q-20 -37 -54 -37q-25 0 -41 17.5t-16 42.5z" />
<glyph unicode="&#x201a;" horiz-adv-x="352" d="M0 74q0 57 40 97t99 40q39 0 70 -19.5t48 -50t18 -67.5t-19 -72l-145 -285q-20 -37 -54 -36q-25 0 -41 17t-16 42v334z" />
<glyph unicode="&#x201c;" horiz-adv-x="692" d="M-1 915.5q-1 36.5 19 71.5l146 285q20 37 53 37q25 0 41 -17.5t16 -42.5v-334q0 -57 -39.5 -97t-99.5 -40q-39 0 -69.5 19.5t-48 50.5t-18.5 67.5zM318 915.5q-1 36.5 20 71.5l145 285q20 37 54 37q25 0 41 -17.5t16 -42.5v-334q0 -57 -40 -97t-99 -40q-39 0 -70 19.5 t-48.5 50.5t-18.5 67.5z" />
<glyph unicode="&#x201d;" horiz-adv-x="692" d="M-2 838v333q0 57 40 97.5t99 40.5q39 0 70 -19.5t48 -50.5t18 -67.5t-19 -71.5l-145 -285q-20 -37 -54 -37q-25 0 -41 17.5t-16 42.5zM317 838v333q0 57 40 97.5t100 40.5q39 0 69.5 -19.5t48 -50.5t18.5 -67.5t-20 -71.5l-145 -285q-20 -37 -53 -37q-25 0 -41.5 17.5 t-16.5 42.5z" />
<glyph unicode="&#x201e;" horiz-adv-x="651" d="M0 74q0 57 40 97t99 40q39 0 70 -19.5t48 -50t18 -67.5t-19 -72l-145 -285q-20 -37 -54 -36q-25 0 -41 17t-16 42v334zM319 74q0 57 40 97t100 40q39 0 69.5 -19.5t48 -50t18.5 -67.5t-20 -72l-145 -285q-20 -37 -53 -36q-25 0 -41.5 17t-16.5 42v334z" />
<glyph unicode="&#x2022;" horiz-adv-x="481" d="M-4 496q0 45 18.5 83.5t47 67.5t66.5 45.5t79 16.5q49 0 89 -19.5t67.5 -50.5t43 -69t15.5 -74q0 -43 -17.5 -82t-46 -68t-68.5 -45t-83 -16t-82 16t-67.5 45t-45 68t-16.5 82z" />
<glyph unicode="&#x202f;" horiz-adv-x="341" />
<glyph unicode="&#x205f;" horiz-adv-x="427" />
<glyph unicode="&#x20ac;" horiz-adv-x="1097" d="M35 475q0 55 39 94q37 39 90 41v62q-53 2 -90 39q-39 41 -39 96t39 95t96 40h4q10 39 25 76q37 84 100 148.5t147 102.5t181 38q123 0 231.5 -62.5t171.5 -173.5q8 -14 15.5 -34.5t7.5 -39.5q0 -57 -41 -98t-99 -41q-45 0 -73.5 23.5t-51.5 58.5q-25 41 -66.5 65.5 t-94.5 24.5q-39 0 -73 -14.5t-60 -40.5q-14 -14 -27 -33h106q55 0 94.5 -40t39.5 -95t-39 -95t-95 -40h-135v-62h135q55 0 94.5 -40t39.5 -95t-39 -95t-95 -40h-88l9 -10q27 -25 60.5 -39.5t72.5 -14.5q53 0 94 25t67 66q23 35 47.5 57t79.5 22t96.5 -39.5t41.5 -99.5 q0 -20 -7.5 -38.5t-17.5 -39.5q-59 -104 -167.5 -166.5t-233.5 -62.5q-90 0 -174 36t-148.5 98.5t-103.5 146.5q-12 29 -21 59h-10q-57 0 -96 40t-39 95z" />
<glyph unicode="&#x2122;" horiz-adv-x="1314" d="M76 629v616h110v-334l154 181h131l-172 -201l162 -221h22v434h111v-82q8 12 17.5 27.5t24.5 30t35.5 24.5t51.5 10q39 0 71.5 -24.5t49.5 -77.5q8 31 39.5 66.5t93.5 35.5q53 0 92 -40t39 -124v-170h131v-659h-170v51h90v418h-112q82 -20 81 -135q0 -59 -30.5 -100.5 t-89.5 -41.5q-53 0 -83 41t-30 101q0 55 17.5 90t64.5 45h-103v-53q-90 0 -90 -91v-122h-61v266h-90q31 -10 45 -38t14 -67v-8h-151q0 -16 5 -34.5t16 -36t30.5 -28.5t50.5 -11q14 0 27.5 4t21.5 4v-39q-23 -10 -39 -11t-39 -1q-61 0 -96 37.5t-35 115.5q0 45 15.5 74 t54.5 39h-82v-43l-123 -172h123v-51h-192v51l120 172h-120v43h-50v-328h90v-49h-174v416h-69zM229 670h101l-101 137v-137zM594 670h149v221q0 37 -2 59.5t-8 33.5t-16 14t-25 3q-25 0 -43 -17t-30.5 -43t-18.5 -55.5t-6 -56.5v-159zM784 547q6 10 21 21.5t31 21.5h-52v-43z M844 670h153v221q0 37 -2 59.5t-8 33.5t-16 14t-25 3q-23 0 -42 -17t-32.5 -43t-20.5 -55.5t-7 -56.5v-159zM1108 670h51v57h-51v-57z" />
<glyph unicode="&#x25fc;" horiz-adv-x="993" d="M0 0v993h993v-993h-993z" />
</font>
</defs>
</svg>
